<?xml version="1.0" encoding="utf-8"?>
<svg version="1.1" xmlns:xlink="http://www.w3.org/1999/xlink" width="64px" height="64px" xmlns="http://www.w3.org/2000/svg">
  <g transform="matrix(1 0 0 1 -3 0 )">
    <path d="M 3 0  L 67 0  L 67 64  L 3 64  L 3 0  " fill-rule="nonzero" fill="#cccccc" stroke="none" />
    <path d="M 7 4  L 63 4  L 63 60  L 7 60  L 7 4  " fill-rule="nonzero" fill="#ffffff" stroke="none" />
    <path d="M 41.08 19.2  C 38.392 19.2  36.28 17.088  36.28 14.4  C 36.28 11.712  38.392 9.6  41.08 9.6  C 43.768 9.6  45.88 11.712  45.88 14.4  C 45.88 17.088  43.768 19.2  41.08 19.2  " fill-rule="nonzero" fill="#cccccc" stroke="none" />
    <path d="M 9 59  L 9 29.85  L 22.25 16.6  L 40.8 27.2  L 51.4 24.55  L 62 27.2  L 62 59  L 9 59  " fill-rule="nonzero" fill="#169bd5" stroke="none" />
  </g>
</svg>