<?xml version="1.0" encoding="utf-8"?>
<svg version="1.1" xmlns:xlink="http://www.w3.org/1999/xlink" width="22px" height="40px" xmlns="http://www.w3.org/2000/svg">
  <g transform="matrix(1 0 0 1 0 -42 )">
    <path d="M 21.6219931271478 2.40480961923847  C 21.8739977090493 2.67201068804275  22 2.97929191716766  22 3.32665330661323  C 22 3.67401469605878  21.8739977090493 3.9812959251837  21.6219931271478 4.24849699398798  L 6.76632302405498 20  L 21.6219931271478 35.751503006012  C 21.8739977090493 36.0187040748163  22 36.3259853039412  22 36.6733466933868  C 22 37.0207080828323  21.8739977090493 37.3279893119572  21.6219931271478 37.5951903807615  L 19.7319587628866 39.5991983967936  C 19.4799541809851 39.8663994655979  19.1901489117984 40  18.8625429553265 40  C 18.5349369988545 40  18.2451317296678 39.8663994655979  17.9931271477663 39.5991983967936  L 0.378006872852234 20.9218436873747  C 0.126002290950745 20.6546426185705  0 20.3473613894456  0 20  C 0 19.6526386105544  0.126002290950745 19.3453573814295  0.378006872852234 19.0781563126253  L 17.9931271477663 0.400801603206413  C 18.2451317296678 0.133600534402136  18.5349369988545 0  18.8625429553265 0  C 19.1901489117984 0  19.4799541809851 0.133600534402136  19.7319587628866 0.400801603206413  L 21.6219931271478 2.40480961923847  Z " fill-rule="nonzero" fill="#8c8c8c" stroke="none" transform="matrix(1 0 0 1 0 42 )" />
  </g>
</svg>