<?xml version="1.0" encoding="utf-8"?>
<svg version="1.1" xmlns:xlink="http://www.w3.org/1999/xlink" width="22px" height="40px" xmlns="http://www.w3.org/2000/svg">
  <g transform="matrix(1 0 0 1 -328 -42 )">
    <path d="M 21.6219931271478 19.0781563126253  C 21.8739977090493 19.3453573814295  22 19.6526386105544  22 20  C 22 20.3473613894456  21.8739977090493 20.6546426185705  21.6219931271478 20.9218436873747  L 4.00687285223368 39.5991983967936  C 3.75486827033219 39.8663994655979  3.46506300114548 40  3.13745704467354 40  C 2.8098510882016 40  2.52004581901489 39.8663994655979  2.2680412371134 39.5991983967936  L 0.378006872852234 37.5951903807615  C 0.126002290950745 37.3279893119572  0 37.0207080828323  0 36.6733466933868  C 0 36.3259853039412  0.126002290950745 36.0187040748163  0.378006872852234 35.751503006012  L 15.233676975945 20  L 0.378006872852234 4.24849699398798  C 0.126002290950745 3.9812959251837  0 3.67401469605878  0 3.32665330661323  C 0 2.97929191716766  0.126002290950745 2.67201068804275  0.378006872852234 2.40480961923847  L 2.2680412371134 0.400801603206413  C 2.52004581901489 0.133600534402136  2.8098510882016 0  3.13745704467354 0  C 3.46506300114548 0  3.75486827033219 0.133600534402136  4.00687285223368 0.400801603206413  L 21.6219931271478 19.0781563126253  Z " fill-rule="nonzero" fill="#555555" stroke="none" transform="matrix(1 0 0 1 328 42 )" />
  </g>
</svg>