<?xml version="1.0" encoding="utf-8"?>
<svg version="1.1" xmlns:xlink="http://www.w3.org/1999/xlink" width="26px" height="24px" xmlns="http://www.w3.org/2000/svg">
  <g transform="matrix(1 0 0 1 -421 -136 )">
    <path d="M 25.4829545454546 11.0625  C 25.5852272727273 11.1647727272727  25.6363636363636 11.2954545454545  25.6363636363636 11.4545454545455  L 25.6363636363636 12.5454545454545  C 25.6363636363636 12.7045454545454  25.5852272727273 12.8352272727273  25.4829545454546 12.9375  C 25.3806818181818 13.0397727272727  25.25 13.0909090909091  25.0909090909091 13  L 11 13  L 10.1111111111111 13.0909090909091  L 0.909090909090935 13.0909090909091  C 0.75 13.0909090909091  0.619318181818187 13.0397727272727  0.517045454545439 12.9375  C 0.414772727272748 12.8352272727273  0.363636363636374 12.7045454545454  0.363636363636374 12.5454545454545  L 0.363636363636374 11.4545454545455  C 0.363636363636374 11.2954545454545  0.414772727272748 11.1647727272727  0.517045454545439 11.0625  C 0.619318181818187 10.9602272727273  0.75 10.9090909090909  0.909090909090935 10.9090909090909  L 10.358024691358 10.9090909090909  L 12.3333333333334 11  L 25.0909090909091 11  C 25.25 10.9090909090909  25.3806818181818 10.9602272727273  25.4829545454546 11.0625  Z M 22.0170454545454 21.0170454545454  C 22.5511363636364 20.4829545454545  22.8181818181818 19.8409090909091  22.8181818181818 19.0909090909091  L 25 19.0909090909091  L 25 4.90909090909091  L 22.8181818181818 4.90909090909091  C 22.8181818181818 4.15909090909091  22.5511363636364 3.51704545454544  22.0170454545454 2.98295454545453  C 21.4829545454546 2.44886363636363  20.8409090909091 2.18181818181819  20.0909090909091 2.18181818181819  L 20.0909090909091 0  L 5.90909090909093 0  L 5.90909090909093 2.18181818181819  C 5.15909090909093 2.18181818181819  4.51704545454544 2.44886363636363  3.98295454545456 2.98295454545453  C 3.44886363636363 3.51704545454544  3.18181818181819 4.15909090909091  3.18181818181819 4.90909090909091  L 1 4.90909090909091  L 1 19.0909090909091  L 3.18181818181819 19.0909090909091  C 3.18181818181819 19.8409090909091  3.44886363636363 20.4829545454545  3.98295454545456 21.0170454545454  C 4.51704545454544 21.5511363636364  5.15909090909093 21.8181818181818  5.90909090909093 21.8181818181818  L 5.90909090909093 24  L 20.0909090909091 24  L 20.0909090909091 21.8181818181818  C 20.8409090909091 21.8181818181818  21.4829545454546 21.5511363636364  22.0170454545454 21.0170454545454  Z M 23.5596590909091 1.44034090909091  C 24.5198863636364 2.40056818181819  25 3.55681818181819  25 4.90909090909091  L 25 19.0909090909091  C 25 20.4431818181818  24.5198863636364 21.5994318181818  23.5596590909091 22.5596590909091  C 22.5994318181818 23.5198863636364  21.4431818181818 24  20.0909090909091 24  L 5.90909090909093 24  C 4.55681818181819 24  3.40056818181819 23.5198863636364  2.44034090909093 22.5596590909091  C 1.48011363636363 21.5994318181818  1 20.4431818181818  1 19.0909090909091  C 1 19.0909090909091  0.975308641975346 15.358024691358  1 11.4545454545455  C 1.02469135802465 7.55106621773291  1 4.90909090909091  1 4.90909090909091  C 1 3.55681818181819  1.48011363636363 2.40056818181819  2.44034090909093 1.44034090909091  C 3.40056818181819 0.480113636363626  4.55681818181819 0  5.90909090909093 0  L 9.37037037037038 0  L 20.0909090909091 0  C 21.4431818181818 0  22.5994318181818 0.480113636363626  23.5596590909091 1.44034090909091  Z " fill-rule="nonzero" fill="#000000" stroke="none" transform="matrix(1 0 0 1 421 136 )" />
  </g>
</svg>