<?xml version="1.0" encoding="utf-8"?>
<svg version="1.1" xmlns:xlink="http://www.w3.org/1999/xlink" width="32px" height="26px" xmlns="http://www.w3.org/2000/svg">
  <g transform="matrix(1 0 0 1 -299 -8 )">
    <path d="M 31.7875 18.7975260416667  C 31.9291666666667 19.6495225694444  32 20.5551215277778  32 21.5143229166667  C 32 22.7443576388889  31.4791666666667 23.7994791666667  30.4375 24.6796875  C 29.3958333333333 25.5598958333333  28.1416666666667 26  26.675 26  L 5.325 26  C 3.85833333333333 26  2.60416666666667 25.5598958333333  1.5625 24.6796875  C 0.520833333333333 23.7994791666667  0 22.7443576388889  0 21.5143229166667  C 0 20.5551215277778  0.0708333333333335 19.6495225694444  0.2125 18.7975260416667  C 0.354166666666667 17.9455295138889  0.616666666666667 17.087890625  1 16.224609375  C 1.38333333333333 15.361328125  1.87083333333333 14.6221788194444  2.4625 14.0071614583333  C 3.05416666666667 13.3921440972222  3.8375 12.8899739583333  4.8125 12.5006510416667  C 5.7875 12.111328125  6.90833333333333 11.9166666666667  8.175 11.9166666666667  C 10.3583333333333 13.3611111111111  12.9666666666667 14.0833333333333  16 14.0833333333333  C 19.0333333333333 14.0833333333333  21.6416666666667 13.3611111111111  23.825 11.9166666666667  C 25.0916666666667 11.9166666666667  26.2125 12.111328125  27.1875 12.5006510416667  C 28.1625 12.8899739583333  28.9458333333333 13.3921440972222  29.5375 14.0071614583333  C 30.1291666666667 14.6221788194444  30.6166666666667 15.361328125  31 16.224609375  C 31.3833333333333 17.087890625  31.6458333333333 17.9455295138889  31.7875 18.7975260416667  Z M 22.7875 1.904296875  C 24.6625 3.173828125  25.6 4.70572916666667  25.6 6.5  C 25.6 8.29427083333333  24.6625 9.826171875  22.7875 11.095703125  C 20.9125 12.365234375  18.65 13  16 13  C 13.35 13  11.0875 12.365234375  9.2125 11.095703125  C 7.3375 9.826171875  6.4 8.29427083333333  6.4 6.5  C 6.4 4.70572916666667  7.3375 3.173828125  9.2125 1.904296875  C 11.0875 0.634765625  13.35 0  16 0  C 18.65 0  20.9125 0.634765625  22.7875 1.904296875  Z " fill-rule="nonzero" fill="#000000" stroke="none" transform="matrix(1 0 0 1 299 8 )" />
  </g>
</svg>