<?xml version="1.0" encoding="utf-8"?>
<svg version="1.1" xmlns:xlink="http://www.w3.org/1999/xlink" width="12px" height="14px" xmlns="http://www.w3.org/2000/svg">
  <g transform="matrix(1 0 0 1 -434 -415 )">
    <path d="M 11.5168229453944 0.759239911192374  C 11.5168229453944 0.909777545600976  11.4329840044126 1.04005049845457  11.265306122449 1.15005876975317  L 2.05714285714285 6.86466890617217  L 2.27090050636985 7  L 11.265306122449 12.8354969309129  C 11.4329840044126 12.9455052022115  11.5168229453944 13.0757781550651  11.5168229453944 13.2263157894737  C 11.5168229453944 13.3768534238823  11.4329840044126 13.5071263767359  11.265306122449 13.6171346480345  C 11.0976282404854 13.7271429193331  10.8990623276338 13.7821470549824  10.6696083838941 13.7821470549824  C 10.4401544401544 13.7821470549824  10.2415885273028 13.7271429193331  10.0739106453392 13.6171346480345  L 0.251516822945397 7.3908188585608  C 0.0838389409817962 7.2808105872622  0 7.1505376344086  0 7  C 0 6.8494623655914  0.0838389409817962 6.7191894127378  0.251516822945397 6.6091811414392  L 10.0739106453392 0.368421052631579  C 10.2415885273028 0.258412781332987  10.4401544401544 0.203408645683691  10.6696083838941 0.203408645683691  C 10.8990623276338 0.203408645683691  11.0976282404854 0.258412781332987  11.265306122449 0.368421052631579  C 11.4329840044126 0.478429323930171  11.5168229453944 0.608702276783773  11.5168229453944 0.759239911192374  Z " fill-rule="nonzero" fill="#d7d7d7" stroke="none" transform="matrix(1 0 0 1 434 415 )" />
  </g>
</svg>