<?xml version="1.0" encoding="utf-8"?>
<svg version="1.1" xmlns:xlink="http://www.w3.org/1999/xlink" width="24px" height="22px" xmlns="http://www.w3.org/2000/svg">
  <g transform="matrix(1 0 0 1 -110 -408 )">
    <path d="M 4.640625 15.4140625  C 4.97544642857143 15.0234375  5.14285714285714 14.5520833333333  5.14285714285714 14  C 5.14285714285714 13.4479166666667  4.97544642857143 12.9765625  4.640625 12.5859375  C 4.30580357142857 12.1953125  3.90178571428572 12  3.42857142857143 12  C 2.95535714285714 12  2.55133928571429 12.1953125  2.21651785714286 12.5859375  C 1.88169642857143 12.9765625  1.71428571428571 13.4479166666667  1.71428571428571 14  C 1.71428571428571 14.5520833333333  1.88169642857143 15.0234375  2.21651785714286 15.4140625  C 2.55133928571429 15.8046875  2.95535714285714 16  3.42857142857143 16  C 3.90178571428572 16  4.30580357142857 15.8046875  4.640625 15.4140625  Z M 7.21205357142857 8.4140625  C 7.546875 8.0234375  7.71428571428572 7.55208333333333  7.71428571428572 7  C 7.71428571428572 6.44791666666666  7.546875 5.9765625  7.21205357142857 5.5859375  C 6.87723214285714 5.1953125  6.47321428571429 5  6 5  C 5.52678571428571 5  5.12276785714286 5.1953125  4.78794642857143 5.5859375  C 4.453125 5.9765625  4.28571428571429 6.44791666666666  4.28571428571429 7  C 4.28571428571429 7.55208333333333  4.453125 8.0234375  4.78794642857143 8.4140625  C 5.12276785714286 8.8046875  5.52678571428571 9  6 9  C 6.47321428571429 9  6.87723214285714 8.8046875  7.21205357142857 8.4140625  Z M 14.4107142857143 15.9375  C 14.2142857142857 15.34375  13.8928571428571 14.8697916666667  13.4464285714286 14.515625  L 14.7991071428571 8.546875  C 14.8526785714286 8.27604166666666  14.8191964285714 8.0234375  14.6986607142857 7.7890625  C 14.578125 7.5546875  14.40625 7.40104166666666  14.1830357142857 7.328125  C 13.9598214285714 7.25520833333333  13.7455357142857 7.2890625  13.5401785714286 7.4296875  C 13.3348214285714 7.5703125  13.2008928571429 7.77604166666667  13.1383928571429 8.046875  L 11.7857142857143 14.015625  C 11.25 14.0677083333333  10.7723214285714 14.2942708333333  10.3526785714286 14.6953125  C 9.93303571428572 15.0963541666667  9.65178571428572 15.609375  9.50892857142857 16.234375  C 9.33035714285714 17.0364583333333  9.41964285714286 17.796875  9.77678571428572 18.515625  C 10.1339285714286 19.234375  10.65625 19.6979166666667  11.34375 19.90625  C 12.03125 20.1145833333333  12.6830357142857 20.0104166666667  13.2991071428571 19.59375  C 13.9151785714286 19.1770833333333  14.3125 18.5677083333333  14.4910714285714 17.765625  C 14.6339285714286 17.140625  14.6071428571429 16.53125  14.4107142857143 15.9375  Z M 21.7834821428571 15.4140625  C 22.1183035714286 15.0234375  22.2857142857143 14.5520833333333  22.2857142857143 14  C 22.2857142857143 13.4479166666667  22.1183035714286 12.9765625  21.7834821428571 12.5859375  C 21.4486607142857 12.1953125  21.0446428571429 12  20.5714285714286 12  C 20.0982142857143 12  19.6941964285714 12.1953125  19.359375 12.5859375  C 19.0245535714286 12.9765625  18.8571428571429 13.4479166666667  18.8571428571429 14  C 18.8571428571429 14.5520833333333  19.0245535714286 15.0234375  19.359375 15.4140625  C 19.6941964285714 15.8046875  20.0982142857143 16  20.5714285714286 16  C 21.0446428571429 16  21.4486607142857 15.8046875  21.7834821428571 15.4140625  Z M 13.2120535714286 5.4140625  C 13.546875 5.0234375  13.7142857142857 4.55208333333333  13.7142857142857 4  C 13.7142857142857 3.44791666666666  13.546875 2.9765625  13.2120535714286 2.5859375  C 12.8772321428571 2.1953125  12.4732142857143 2  12 2  C 11.5267857142857 2  11.1227678571429 2.1953125  10.7879464285714 2.5859375  C 10.453125 2.9765625  10.2857142857143 3.44791666666666  10.2857142857143 4  C 10.2857142857143 4.55208333333333  10.453125 5.0234375  10.7879464285714 5.4140625  C 11.1227678571429 5.8046875  11.5267857142857 6  12 6  C 12.4732142857143 6  12.8772321428571 5.8046875  13.2120535714286 5.4140625  Z M 19.2120535714286 8.4140625  C 19.546875 8.0234375  19.7142857142857 7.55208333333333  19.7142857142857 7  C 19.7142857142857 6.44791666666666  19.546875 5.9765625  19.2120535714286 5.5859375  C 18.8772321428571 5.1953125  18.4732142857143 5  18 5  C 17.5267857142857 5  17.1227678571429 5.1953125  16.7879464285714 5.5859375  C 16.453125 5.9765625  16.2857142857143 6.44791666666666  16.2857142857143 7  C 16.2857142857143 7.55208333333333  16.453125 8.0234375  16.7879464285714 8.4140625  C 17.1227678571429 8.8046875  17.5267857142857 9  18 9  C 18.4732142857143 9  18.8772321428571 8.8046875  19.2120535714286 8.4140625  Z M 23.0491071428571 8.5625  C 23.6830357142857 10.2916666666667  24 12.1041666666667  24 14  C 24 16.71875  23.3705357142857 19.234375  22.1116071428571 21.546875  C 21.9419642857143 21.8489583333333  21.7008928571429 22  21.3883928571429 22  L 2.61160714285714 22  C 2.29910714285714 22  2.05803571428571 21.8489583333333  1.88839285714286 21.546875  C 0.629464285714286 19.2447916666667  0 16.7291666666667  0 14  C 0 12.1041666666667  0.316964285714286 10.2916666666667  0.950892857142857 8.5625  C 1.58482142857143 6.83333333333333  2.4375 5.34375  3.50892857142857 4.09375  C 4.58035714285714 2.84375  5.85714285714286 1.84895833333333  7.33928571428572 1.109375  C 8.82142857142857 0.369791666666665  10.375 0  12 0  C 13.625 0  15.1785714285714 0.369791666666665  16.6607142857143 1.109375  C 18.1428571428571 1.84895833333333  19.4196428571429 2.84375  20.4910714285714 4.09375  C 21.5625 5.34375  22.4151785714286 6.83333333333333  23.0491071428571 8.5625  Z " fill-rule="nonzero" fill="#70b603" stroke="none" transform="matrix(1 0 0 1 110 408 )" />
  </g>
</svg>