<?xml version="1.0" encoding="utf-8"?>
<svg version="1.1" xmlns:xlink="http://www.w3.org/1999/xlink" width="24px" height="24px" xmlns="http://www.w3.org/2000/svg">
  <g transform="matrix(1 0 0 1 -110 -502 )">
    <path d="M 8.06919642857143 11.6491694352159  C 8.40401785714286 11.2504983388704  8.57142857142857 10.7694352159468  8.57142857142857 10.2059800664452  C 8.57142857142857 9.64252491694352  8.40401785714286 9.16146179401993  8.06919642857143 8.76279069767442  C 7.734375 8.3641196013289  7.33035714285714 8.16478405315615  6.85714285714286 8.16478405315615  C 6.38392857142857 8.16478405315615  5.97991071428572 8.3641196013289  5.64508928571429 8.76279069767442  C 5.31026785714286 9.16146179401993  5.14285714285714 9.64252491694352  5.14285714285714 10.2059800664452  C 5.14285714285714 10.7694352159468  5.31026785714286 11.2504983388704  5.64508928571429 11.6491694352159  C 5.97991071428572 12.0478405315615  6.38392857142857 12.2471760797342  6.85714285714286 12.2471760797342  C 7.33035714285714 12.2471760797342  7.734375 12.0478405315615  8.06919642857143 11.6491694352159  Z M 13.2120535714286 11.6491694352159  C 13.546875 11.2504983388704  13.7142857142857 10.7694352159468  13.7142857142857 10.2059800664452  C 13.7142857142857 9.64252491694352  13.546875 9.16146179401993  13.2120535714286 8.76279069767442  C 12.8772321428571 8.3641196013289  12.4732142857143 8.16478405315615  12 8.16478405315615  C 11.5267857142857 8.16478405315615  11.1227678571429 8.3641196013289  10.7879464285714 8.76279069767442  C 10.453125 9.16146179401993  10.2857142857143 9.64252491694352  10.2857142857143 10.2059800664452  C 10.2857142857143 10.7694352159468  10.453125 11.2504983388704  10.7879464285714 11.6491694352159  C 11.1227678571429 12.0478405315615  11.5267857142857 12.2471760797342  12 12.2471760797342  C 12.4732142857143 12.2471760797342  12.8772321428571 12.0478405315615  13.2120535714286 11.6491694352159  Z M 18.3549107142857 11.6491694352159  C 18.6897321428571 11.2504983388704  18.8571428571429 10.7694352159468  18.8571428571429 10.2059800664452  C 18.8571428571429 9.64252491694352  18.6897321428571 9.16146179401993  18.3549107142857 8.76279069767442  C 18.0200892857143 8.3641196013289  17.6160714285714 8.16478405315615  17.1428571428571 8.16478405315615  C 16.6696428571429 8.16478405315615  16.265625 8.3641196013289  15.9308035714286 8.76279069767442  C 15.5959821428571 9.16146179401993  15.4285714285714 9.64252491694352  15.4285714285714 10.2059800664452  C 15.4285714285714 10.7694352159468  15.5959821428571 11.2504983388704  15.9308035714286 11.6491694352159  C 16.265625 12.0478405315615  16.6696428571429 12.2471760797342  17.1428571428571 12.2471760797342  C 17.6160714285714 12.2471760797342  18.0200892857143 12.0478405315615  18.3549107142857 11.6491694352159  Z M 22.3928571428571 5.07906976744186  C 23.4642857142857 6.64717607973422  24 8.35614617940199  24 10.2059800664452  C 24 12.0558139534884  23.4642857142857 13.7647840531561  22.3928571428571 15.3328903654485  C 21.3214285714286 16.9009966777409  19.8660714285714 18.1395348837209  18.0267857142857 19.0485049833887  C 16.1875 19.9574750830565  14.1785714285714 20.4119601328904  12 20.4119601328904  C 11.0178571428571 20.4119601328904  10.0758928571429 20.3162790697674  9.17410714285714 20.1249169435216  C 7.62946428571429 21.9641196013289  5.6875 23.1813953488372  3.34821428571429 23.7767441860465  C 2.88392857142857 23.8830564784053  2.5 23.9521594684385  2.19642857142857 23.9840531561462  C 2.08928571428571 23.9946843853821  1.99107142857143 23.9627906976744  1.90178571428571 23.8883720930233  C 1.8125 23.8139534883721  1.75446428571429 23.7182724252492  1.72767857142857 23.6013289036545  C 1.69196428571429 23.4418604651163  1.78125 23.2451827242525  1.99553571428571 23.0112956810631  C 2.04017857142857 22.9581395348837  2.14508928571429 22.843853820598  2.31026785714286 22.668438538206  C 2.47544642857143 22.493023255814  2.58928571428571 22.3681063122924  2.65178571428571 22.2936877076412  C 2.71428571428571 22.21926910299  2.81919642857143 22.0837209302326  2.96651785714286 21.8870431893688  C 3.11383928571429 21.690365448505  3.22098214285714 21.5229235880399  3.28794642857143 21.3847176079734  C 3.35491071428571 21.246511627907  3.44642857142857 21.0498338870432  3.5625 20.7946843853821  C 3.67857142857143 20.5395348837209  3.76785714285714 20.2843853820598  3.83035714285714 20.0292358803987  C 3.89285714285714 19.7740863787375  3.95758928571429 19.468438538206  4.02455357142857 19.112292358804  C 4.09151785714286 18.756146179402  4.14732142857143 18.3707641196013  4.19196428571429 17.956146179402  C 2.88839285714286 16.9993355481728  1.86383928571429 15.8485049833887  1.11830357142857 14.5036544850498  C 0.372767857142857 13.158803986711  0 11.7262458471761  0 10.2059800664452  C 0 8.35614617940199  0.535714285714286 6.64717607973422  1.60714285714286 5.07906976744186  C 2.67857142857143 3.5109634551495  4.13392857142857 2.27242524916944  5.97321428571429 1.36345514950166  C 7.8125 0.454485049833888  9.82142857142857 0  12 0  C 14.1785714285714 0  16.1875 0.454485049833888  18.0267857142857 1.36345514950166  C 19.8660714285714 2.27242524916944  21.3214285714286 3.5109634551495  22.3928571428571 5.07906976744186  Z " fill-rule="nonzero" fill="#70b603" stroke="none" transform="matrix(1 0 0 1 110 502 )" />
  </g>
</svg>