<?xml version="1.0" encoding="utf-8"?>
<svg version="1.1" xmlns:xlink="http://www.w3.org/1999/xlink" width="24px" height="24px" xmlns="http://www.w3.org/2000/svg">
  <g transform="matrix(1 0 0 1 -110 -453 )">
    <path d="M 5.03107861060329 20.2897139379184  C 5.21633150517977 20.1046865489957  5.30895795246801 19.8855751673768  5.30895795246801 19.6323797930615  C 5.30895795246801 19.3791844187462  5.21633150517977 19.1600730371272  5.03107861060329 18.9750456482045  C 4.84582571602681 18.7900182592818  4.62644728823888 18.6975045648204  4.37294332723949 18.6975045648204  C 4.1194393662401 18.6975045648204  3.90006093845216 18.7900182592818  3.71480804387569 18.9750456482045  C 3.52955514929921 19.1600730371272  3.43692870201097 19.3791844187462  3.43692870201097 19.6323797930615  C 3.43692870201097 19.8855751673768  3.52955514929921 20.1046865489957  3.71480804387569 20.2897139379184  C 3.90006093845216 20.4747413268411  4.1194393662401 20.5672550213025  4.37294332723949 20.5672550213025  C 4.62644728823888 20.5672550213025  4.84582571602681 20.4747413268411  5.03107861060329 20.2897139379184  Z M 12.1901279707495 11.8247108947048  C 12.9262644728824 12.5599513085819  13.7720901889092 13.1174680462568  14.72760511883 13.4972611077298  L 4.75319926873857 23.4595252586732  C 4.39244363193175 23.8198417528911  3.95368677635588 24  3.43692870201097 24  C 2.92992078001219 24  2.48628884826325 23.8198417528911  2.10603290676417 23.4595252586732  L 0.555758683729433 21.8819233110164  C 0.185252894576478 21.5313451004261  0 21.0931223371881  0 20.5672550213025  C 0 20.0511259890444  0.185252894576478 19.6080340839927  0.555758683729433 19.2379793061473  L 10.5155393053016 9.29032258064516  C 10.8957952468007 10.2446743761412  11.4539914686167 11.0894704808278  12.1901279707495 11.8247108947048  Z M 23.8756855575868 6.77784540474741  C 23.9585618525289 6.87522824102252  24 6.9969567863664  24 7.14303104077906  C 24 7.52282410225198  23.8878732480195 8.03895313451004  23.6636197440585 8.69141813755326  C 23.2053625837904 9.99634814363968  22.4034125533211 11.0553864881315  21.2577696526508 11.8685331710286  C 20.1121267519805 12.6816798539257  18.8519195612431 13.0882531953743  17.4771480804388 13.0882531953743  C 15.6733698964046 13.0882531953743  14.1304082876295 12.4479610468655  12.8482632541133 11.1673767498478  C 11.5661182205972 9.88679245283019  10.9250457038391 8.34570906877663  10.9250457038391 6.54412659768716  C 10.9250457038391 4.74254412659769  11.5661182205972 3.20146074254413  12.8482632541133 1.92087644552648  C 14.1304082876295 0.640292148508824  15.6733698964046 0  17.4771480804388 0  C 18.0426569165143 0  18.6349786715417 0.0803408399269641  19.254113345521 0.24102251978089  C 19.8732480195003 0.401704199634815  20.3973187081048 0.628119293974438  20.8263254113346 0.920267802799757  C 20.9823278488726 1.02738892270237  21.0603290676417 1.16372489348752  21.0603290676417 1.3292757151552  C 21.0603290676417 1.49482653682288  20.9823278488726 1.63116250760803  20.8263254113346 1.73828362751065  L 16.5411334552102 4.2069385270846  L 16.5411334552102 7.47900182592818  L 19.363802559415 9.04199634814364  C 19.4125533211456 9.01278149726111  19.7976843388178 8.77662811929397  20.5191956124314 8.33353621424224  C 21.2407068860451 7.8904443091905  21.9012797074954 7.49604382227632  22.5009140767825 7.15033475349969  C 23.1005484460695 6.80462568472307  23.4442413162706 6.63177115033475  23.5319926873857 6.63177115033475  C 23.6782449725777 6.63177115033475  23.7928092626447 6.68046256847231  23.8756855575868 6.77784540474741  Z " fill-rule="nonzero" fill="#70b603" stroke="none" transform="matrix(1 0 0 1 110 453 )" />
  </g>
</svg>