<?xml version="1.0" encoding="utf-8"?>
<svg version="1.1" xmlns:xlink="http://www.w3.org/1999/xlink" width="24px" height="24px" xmlns="http://www.w3.org/2000/svg">
  <g transform="matrix(1 0 0 1 -110 -546 )">
    <path d="M 15.8828125 16.940625  C 16.1276041666667 17.234375  16.25 17.5875  16.25 18  C 16.25 18.4125  16.1276041666667 18.765625  15.8828125 19.059375  C 15.6380208333333 19.353125  15.34375 19.5  15 19.5  C 14.65625 19.5  14.3619791666667 19.353125  14.1171875 19.059375  C 13.8723958333333 18.765625  13.75 18.4125  13.75 18  C 13.75 17.5875  13.8723958333333 17.234375  14.1171875 16.940625  C 14.3619791666667 16.646875  14.65625 16.5  15 16.5  C 15.34375 16.5  15.6380208333333 16.646875  15.8828125 16.940625  Z M 19.8828125 16.940625  C 20.1276041666667 17.234375  20.25 17.5875  20.25 18  C 20.25 18.4125  20.1276041666667 18.765625  19.8828125 19.059375  C 19.6380208333333 19.353125  19.34375 19.5  19 19.5  C 18.65625 19.5  18.3619791666667 19.353125  18.1171875 19.059375  C 17.8723958333333 18.765625  17.75 18.4125  17.75 18  C 17.75 17.5875  17.8723958333333 17.234375  18.1171875 16.940625  C 18.3619791666667 16.646875  18.65625 16.5  19 16.5  C 19.34375 16.5  19.6380208333333 16.646875  19.8828125 16.940625  Z M 21.8515625 21.421875  C 21.9505208333333 21.303125  22 21.1625  22 21  L 22 15  C 22 14.8375  21.9505208333333 14.696875  21.8515625 14.578125  C 21.7526041666667 14.459375  21.6354166666667 14.4  21.5 14  L 2.5 14  C 2.36458333333333 14.4  2.24739583333333 14.459375  2.1484375 14.578125  C 2.04947916666667 14.696875  2 14.8375  2 15  L 2 21  C 2 21.1625  2.04947916666667 21.303125  2.1484375 21.421875  C 2.24739583333333 21.540625  2.36458333333333 21.6  2.5 21.6  L 21.5 21.6  C 21.6354166666667 21.6  21.7526041666667 21.540625  21.8515625 21.421875  Z M 5.234375 2.9625  L 2.78125 12  L 21.21875 12  L 18.765625 2.9625  C 18.7239583333333 2.8  18.640625 2.665625  18.515625 2.559375  C 18.390625 2.453125  18.2552083333333 2.4  18.109375 2.4  L 5.890625 2.4  C 5.74479166666667 2.4  5.609375 2.453125  5.484375 2.559375  C 5.359375 2.665625  5.27604166666667 2.8  5.234375 2.9625  Z M 23.75 13.59375  C 23.9166666666667 14.21875  24 14.6875  24 15  L 24 21  C 24 21.825  23.7552083333333 22.53125  23.265625 23.11875  C 22.7760416666667 23.70625  22.1875 24  21.5 24  L 2.5 24  C 1.8125 24  1.22395833333333 23.70625  0.734375 23.11875  C 0.244791666666667 22.53125  0 21.825  0 21  L 0 15  C 0 14.6875  0.0833333333333333 14.21875  0.25 13.59375  L 3.328125 2.23125  C 3.50520833333333 1.56875  3.83333333333333 1.03125  4.3125 0.618749999999999  C 4.79166666666667 0.206249999999999  5.31770833333333 0  5.890625 0  L 18.109375 0  C 18.6822916666667 0  19.2083333333333 0.206249999999999  19.6875 0.618749999999999  C 20.1666666666667 1.03125  20.4947916666667 1.56875  20.671875 2.23125  L 23.75 13.59375  Z " fill-rule="nonzero" fill="#70b603" stroke="none" transform="matrix(1 0 0 1 110 546 )" />
  </g>
</svg>