<?xml version="1.0" encoding="utf-8"?>
<svg version="1.1" xmlns:xlink="http://www.w3.org/1999/xlink" width="24px" height="23px" xmlns="http://www.w3.org/2000/svg">
  <g transform="matrix(1 0 0 1 -110 -592 )">
    <path d="M 15.859375 19.0319010416667  C 15.953125 18.9420572916667  16 18.8272569444444  16 18.6875  L 16 16.2916666666667  C 16 16.1519097222222  15.953125 16.037109375  15.859375 15.947265625  C 15.765625 15.857421875  15.6458333333333 15.8125  15.5 15.8125  L 14 15.8125  L 14 8.14583333333333  C 14 8.00607638888889  13.953125 7.89127604166667  13.859375 7.80143229166667  C 13.765625 7.71158854166667  13.6458333333333 7.66666666666667  13.5 7.66666666666667  L 8.5 7.66666666666667  C 8.35416666666667 7.66666666666667  8.234375 7.71158854166667  8.140625 7.80143229166667  C 8.046875 7.89127604166667  8 8.00607638888889  8 8.14583333333333  L 8 10.5416666666667  C 8 10.6814236111111  8.046875 10.7962239583333  8.140625 10.8860677083333  C 8.234375 10.9759114583333  8.35416666666667 11.0208333333333  8.5 11.0208333333333  L 10 11.0208333333333  L 10 15.8125  L 8.5 15.8125  C 8.35416666666667 15.8125  8.234375 15.857421875  8.140625 15.947265625  C 8.046875 16.037109375  8 16.1519097222222  8 16.2916666666667  L 8 18.6875  C 8 18.8272569444444  8.046875 18.9420572916667  8.140625 19.0319010416667  C 8.234375 19.1217447916667  8.35416666666667 19.1666666666667  8.5 19.1666666666667  L 15.5 19.1666666666667  C 15.6458333333333 19.1666666666667  15.765625 19.1217447916667  15.859375 19.0319010416667  Z M 13.859375 5.615234375  C 13.953125 5.525390625  14 5.41059027777778  14 5.27083333333333  L 14 2.875  C 14 2.73524305555555  13.953125 2.62044270833333  13.859375 2.53059895833333  C 13.765625 2.44075520833333  13.6458333333333 2.39583333333333  13.5 2.39583333333333  L 10.5 2.39583333333333  C 10.3541666666667 2.39583333333333  10.234375 2.44075520833333  10.140625 2.53059895833333  C 10.046875 2.62044270833333  10 2.73524305555555  10 2.875  L 10 5.27083333333333  C 10 5.41059027777778  10.046875 5.525390625  10.140625 5.615234375  C 10.234375 5.705078125  10.3541666666667 5.75  10.5 5.75  L 13.5 5.75  C 13.6458333333333 5.75  13.765625 5.705078125  13.859375 5.615234375  Z M 22.390625 5.7275390625  C 23.4635416666667 7.48947482638889  24 9.41362847222222  24 11.5  C 24 13.5863715277778  23.4635416666667 15.5105251736111  22.390625 17.2724609375  C 21.3177083333333 19.0343967013889  19.8619791666667 20.4294704861111  18.0234375 21.4576822916667  C 16.1848958333333 22.4858940972222  14.1770833333333 23  12 23  C 9.82291666666667 23  7.81510416666667 22.4858940972222  5.9765625 21.4576822916667  C 4.13802083333333 20.4294704861111  2.68229166666667 19.0343967013889  1.609375 17.2724609375  C 0.536458333333333 15.5105251736111  0 13.5863715277778  0 11.5  C 0 9.41362847222222  0.536458333333333 7.48947482638889  1.609375 5.7275390625  C 2.68229166666667 3.96560329861111  4.13802083333333 2.57052951388889  5.9765625 1.54231770833333  C 7.81510416666667 0.514105902777776  9.82291666666667 0  12 0  C 14.1770833333333 0  16.1848958333333 0.514105902777776  18.0234375 1.54231770833333  C 19.8619791666667 2.57052951388889  21.3177083333333 3.96560329861111  22.390625 5.7275390625  Z " fill-rule="nonzero" fill="#70b603" stroke="none" transform="matrix(1 0 0 1 110 592 )" />
  </g>
</svg>