<?xml version="1.0" encoding="utf-8"?>
<svg version="1.1" xmlns:xlink="http://www.w3.org/1999/xlink" width="64px" height="64px" xmlns="http://www.w3.org/2000/svg">
  <g transform="matrix(1 0 0 1 -256 0 )">
    <path d="M 30.484375 27.3125  C 28.140625 30.4375  25.3125 32  22 32  C 18.6875 32  15.859375 30.4375  13.515625 27.3125  C 11.171875 24.1875  10 20.4166666666667  10 16  C 10 11.5833333333333  11.171875 7.8125  13.515625 4.6875  C 15.859375 1.5625  18.6875 0  22 0  C 25.3125 0  28.140625 1.5625  30.484375 4.6875  C 32.828125 7.8125  34 11.5833333333333  34 16  C 34 20.4166666666667  32.828125 24.1875  30.484375 27.3125  Z M 52 22.6666666666667  L 52 37  L 63 37  C 63.2708333333333 37.3333333333333  63.5052083333333 37.4652777777778  63.703125 37.7291666666667  C 63.9010416666667 37.9930555555556  64 38.3055555555556  64 38.6666666666667  L 64 46.6666666666667  C 64 47.0277777777778  63.9010416666667 47.3402777777778  63.703125 47.6041666666667  C 63.5052083333333 47.8680555555556  63.2708333333333 48  63 48  L 52 48  L 52 62.6666666666667  C 52 63.0277777777778  51.9010416666667 63.3402777777778  51.703125 63.6041666666667  C 51.5052083333333 63.8680555555556  51.2708333333333 64  51 64  L 45 64  C 44.7291666666667 64  44.4947916666667 63.8680555555556  44.296875 63.6041666666667  C 44.0989583333333 63.3402777777778  44 63.0277777777778  44 62.6666666666667  L 44 48  L 33 48  C 32.7291666666667 48  32.4947916666667 47.8680555555556  32.296875 47.6041666666667  C 32.0989583333333 47.3402777777778  32 47.0277777777778  32 46.6666666666667  L 32 38.6666666666667  C 32 38.3055555555556  32.0989583333333 37.9930555555556  32.296875 37.7291666666667  C 32.4947916666667 37.4652777777778  32.7291666666667 37.3333333333333  33 37  L 44 37  L 44 22.6666666666667  C 44 22.3055555555556  44.0989583333333 21.9930555555556  44.296875 21.7291666666667  C 44.4947916666667 21.4652777777778  44.7291666666667 21.3333333333333  45 21.3333333333333  L 51 21.3333333333333  C 51.2708333333333 21.3333333333333  51.5052083333333 21.4652777777778  51.703125 21.7291666666667  C 51.9010416666667 21.9930555555556  52 22.3055555555556  52 22.6666666666667  Z M 29 38.6666666666667  L 29 46.6666666666667  C 29 48.1111111111111  29.3958333333333 49.3611111111111  30.1875 50.4166666666667  C 30.9791666666667 51.4722222222222  31.9166666666667 52  33 52  L 41 52  L 41 61.9166666666667  C 39.5833333333333 63.3055555555556  37.8020833333333 64  35.65625 64  L 8.34375 64  C 5.82291666666667 64  3.80208333333333 63.0416666666667  2.28125 61.125  C 0.760416666666667 59.2083333333333  0 56.5694444444445  0 53.2083333333333  C 0 51.7361111111111  0.0364583333333333 50.2986111111111  0.109375 48.8958333333333  C 0.182291666666667 47.4930555555556  0.328125 45.9791666666667  0.546875 44.3541666666667  C 0.765625 42.7291666666667  1.04166666666667 41.2222222222222  1.375 39.8333333333333  C 1.70833333333333 38.4444444444444  2.15625 37.0902777777778  2.71875 35.7708333333333  C 3.28125 34.4513888888889  3.92708333333333 33.3263888888889  4.65625 32.3958333333333  C 5.38541666666667 31.4652777777778  6.27604166666667 30.7222222222222  7.328125 30.1666666666667  C 8.38020833333333 29.6111111111111  9.54166666666667 29.3333333333333  10.8125 29.3333333333333  C 11.2083333333333 29.3333333333333  11.6145833333333 29.5694444444444  12.03125 30.0416666666667  C 13.6770833333333 31.7361111111111  15.2864583333333 33.0069444444444  16.859375 33.8541666666667  C 18.4322916666667 34.7013888888889  20.1458333333333 35.125  22 35.125  C 23.8541666666667 35.125  25.5677083333333 34.7013888888889  27.140625 33.8541666666667  C 28.7135416666667 33.0069444444444  30.3229166666667 31.7361111111111  31.96875 30.0416666666667  C 32.3854166666667 29.5694444444444  32.7916666666667 29.3333333333333  33.1875 29.3333333333333  C 35.9375 29.3333333333333  38.1979166666667 30.6666666666667  39.96875 33.3333333333333  L 33 33.3333333333333  C 31.9166666666667 33.3333333333333  30.9791666666667 33.8611111111111  30.1875 34.9166666666667  C 29.3958333333333 35.9722222222222  29 37.2222222222222  29 38.6666666666667  Z " fill-rule="nonzero" fill="#555555" stroke="none" transform="matrix(1 0 0 1 256 0 )" />
  </g>
</svg>