<?xml version="1.0" encoding="utf-8"?>
<svg version="1.1" xmlns:xlink="http://www.w3.org/1999/xlink" width="24px" height="24px" xmlns="http://www.w3.org/2000/svg">
  <g transform="matrix(1 0 0 1 -110 -365 )">
    <path d="M 23.6659528907923 14.6116071428571  C 23.8886509635974 15.0044642857143  24 15.4241071428571  24 15.8705357142857  C 24 17.2366071428571  23.1477516059957 18.4129464285714  21.4432548179872 19.3995535714286  C 19.7387580299786 20.3861607142857  17.524625267666 20.9955357142857  14.8008565310493 21.2276785714286  L 14.8008565310493 23.5714285714286  C 14.8008565310493 23.6964285714286  14.7237687366167 23.7991071428571  14.5695931477516 23.8794642857143  C 14.4154175588865 23.9598214285714  14.2184154175589 24  13.9785867237687 24  L 10.5096359743041 24  C 10.2869379014989 24  10.0942184154176 23.9575892857143  9.93147751605996 23.8727678571429  C 9.76873661670236 23.7879464285714  9.68736616702355 23.6875  9.68736616702355 23.5714285714286  L 9.68736616702355 21.2276785714286  C 8.55674518201285 21.1473214285714  7.46466809421842 21.0089285714286  6.41113490364026 20.8125  C 5.3576017130621 20.6160714285714  4.48822269807281 20.4174107142857  3.80299785867238 20.2165178571429  C 3.11777301927195 20.015625  2.48394004282655 19.8013392857143  1.90149892933619 19.5736607142857  C 1.31905781584582 19.3459821428571  0.920770877944326 19.1785714285714  0.706638115631692 19.0714285714286  C 0.492505353319058 18.9642857142857  0.342612419700214 18.8839285714286  0.256959314775161 18.8303571428571  C -0.0342612419700213 18.6428571428571  -0.0513918629550321 18.4598214285714  0.205567451820128 18.28125  L 2.85224839400428 16.4732142857143  C 2.97216274089936 16.3839285714286  3.16916488222698 16.3303571428571  3.44325481798715 16.3125  C 3.70021413276231 16.2946428571429  3.90578158458244 16.3348214285714  4.05995717344754 16.4330357142857  L 4.11134903640257 16.4598214285714  C 6.04710920770878 17.34375  8.12847965738758 17.9017857142857  10.355460385439 18.1339285714286  C 10.9892933618844 18.2053571428571  11.6231263383298 18.2410714285714  12.2569593147752 18.2410714285714  C 13.644539614561 18.2410714285714  14.865096359743 18.0491071428571  15.9186295503212 17.6651785714286  C 16.9721627408994 17.28125  17.4989293361884 16.7366071428571  17.4989293361884 16.03125  C 17.4989293361884 15.78125  17.3704496788009 15.5446428571429  17.1134903640257 15.3214285714286  C 16.8565310492505 15.0982142857143  16.5695931477516 14.9107142857143  16.2526766595289 14.7589285714286  C 15.9357601713062 14.6071428571429  15.4346895074946 14.4397321428571  14.7494646680942 14.2566964285714  C 14.0642398286938 14.0736607142857  13.4989293361884 13.9308035714286  13.0535331905782 13.828125  C 12.6081370449679 13.7254464285714  11.9229122055675 13.5803571428571  10.9978586723769 13.3928571428571  C 10.3297644539615 13.25  9.80299785867238 13.1383928571429  9.41755888650964 13.0580357142857  C 9.03211991434689 12.9776785714286  8.50535331905782 12.859375  7.8372591006424 12.703125  C 7.16916488222698 12.546875  6.6338329764454 12.4084821428571  6.23126338329764 12.2879464285714  C 5.82869379014989 12.1674107142857  5.34475374732334 12.0089285714286  4.77944325481799 11.8125  C 4.21413276231263 11.6160714285714  3.7558886509636 11.4263392857143  3.40471092077088 11.2433035714286  C 3.05353319057816 11.0602678571429  2.68094218415418 10.8415178571429  2.28693790149893 10.5870535714286  C 1.89293361884368 10.3325892857143  1.58886509635974 10.0736607142857  1.37473233404711 9.81026785714286  C 1.16059957173448 9.546875  0.980728051391863 9.25  0.835117773019272 8.91964285714286  C 0.689507494646681 8.58928571428572  0.616702355460385 8.24107142857143  0.616702355460385 7.875  C 0.616702355460385 6.64285714285714  1.45610278372591 5.5625  3.13490364025696 4.63392857142857  C 4.81370449678801 3.70535714285714  6.99785867237688 3.10714285714286  9.68736616702355 2.83928571428571  L 9.68736616702355 0.42857142857143  C 9.68736616702355 0.312499999999998  9.76873661670236 0.212053571428571  9.93147751605996 0.127232142857143  C 10.0942184154176 0.0424107142857153  10.2869379014989 0  10.5096359743041 0  L 13.9785867237687 0  C 14.2184154175589 0  14.4154175588865 0.0401785714285703  14.5695931477516 0.120535714285714  C 14.7237687366167 0.200892857142857  14.8008565310493 0.303571428571426  14.8008565310493 0.42857142857143  L 14.8008565310493 2.78571428571429  C 15.7773019271949 2.83928571428571  16.7237687366167 2.94196428571428  17.6402569593148 3.09375  C 18.5567451820129 3.24553571428571  19.3019271948608 3.39508928571429  19.8758029978587 3.54241071428571  C 20.4496788008565 3.68973214285714  20.9935760171306 3.85714285714286  21.5074946466809 4.04464285714286  C 22.0214132762313 4.23214285714286  22.355460385439 4.36160714285714  22.5096359743041 4.43303571428571  C 22.6638115631692 4.50446428571428  22.7922912205567 4.56696428571429  22.8950749464668 4.62053571428571  C 23.186295503212 4.78125  23.2291220556745 4.95089285714286  23.0235546038544 5.12946428571429  L 20.9421841541756 7.08482142857143  C 20.8051391862955 7.21875  20.6081370449679 7.29017857142857  20.3511777301927 7.29910714285714  C 20.1113490364026 7.32589285714286  19.8800856531049 7.29464285714286  19.6573875802998 7.20535714285714  C 19.6059957173448 7.17857142857143  19.4817987152034 7.125  19.2847965738758 7.04464285714286  C 19.0877944325482 6.96428571428571  18.7537473233405 6.84598214285714  18.2826552462527 6.68973214285714  C 17.8115631691649 6.53348214285714  17.3104925053533 6.390625  16.779443254818 6.26116071428571  C 16.2483940042827 6.13169642857143  15.610278372591 6.015625  14.865096359743 5.91294642857143  C 14.1199143468951 5.81026785714286  13.3875802997859 5.75892857142857  12.6680942184154 5.75892857142857  C 11.0406852248394 5.75892857142857  9.71306209850107 5.95089285714286  8.68522483940043 6.33482142857143  C 7.65738758029979 6.71875  7.14346895074947 7.21428571428571  7.14346895074947 7.82142857142857  C 7.14346895074947 8.05357142857143  7.21627408993576 8.26785714285714  7.36188436830835 8.46428571428571  C 7.50749464668094 8.66071428571428  7.76017130620985 8.84598214285714  8.11991434689508 9.02008928571429  C 8.4796573875803 9.19419642857143  8.81798715203426 9.34151785714286  9.13490364025696 9.46205357142857  C 9.45182012847966 9.58258928571429  9.93147751605996 9.72098214285714  10.5738758029979 9.87723214285714  C 11.2162740899358 10.0334821428571  11.7344753747323 10.1540178571429  12.1284796573876 10.2388392857143  C 12.5224839400428 10.3236607142857  13.1220556745182 10.4464285714286  13.9271948608137 10.6071428571429  C 14.8351177730193 10.7857142857143  15.5289079229122 10.9263392857143  16.0085653104925 11.0290178571429  C 16.4882226980728 11.1316964285714  17.1391862955032 11.2879464285714  17.9614561027837 11.4977678571429  C 18.7837259100642 11.7075892857143  19.4304068522484 11.8973214285714  19.9014989293362 12.0669642857143  C 20.372591006424 12.2366071428571  20.9036402569593 12.4598214285714  21.4946466809422 12.7366071428571  C 22.0856531049251 13.0133928571429  22.5396145610278 13.296875  22.8565310492505 13.5870535714286  C 23.1734475374732 13.8772321428571  23.4432548179872 14.21875  23.6659528907923 14.6116071428571  Z " fill-rule="nonzero" fill="#70b603" stroke="none" transform="matrix(1 0 0 1 110 365 )" />
  </g>
</svg>