<?xml version="1.0" encoding="utf-8"?>
<svg version="1.1" xmlns:xlink="http://www.w3.org/1999/xlink" width="12px" height="12px" xmlns="http://www.w3.org/2000/svg">
  <g transform="matrix(1 0 0 1 -267 -3 )">
    <path d="M 5.26442307692308 6.86931818181818  C 5.44711538461538 7.08522727272727  5.53846153846154 7.34090909090909  5.53846153846154 7.63636363636364  L 5.53846153846154 10.9090909090909  C 5.53846153846154 11.2045454545455  5.44711538461538 11.4602272727273  5.26442307692308 11.6761363636364  C 5.08173076923077 11.8920454545455  4.86538461538462 12  4.61538461538462 12  L 0.923076923076923 12  C 0.673076923076923 12  0.456730769230769 11.8920454545455  0.274038461538462 11.6761363636364  C 0.0913461538461538 11.4602272727273  0 11.2045454545455  0 10.9090909090909  L 0 7.63636363636364  C 0 7.34090909090909  0.0913461538461538 7.08522727272727  0.274038461538462 6.86931818181818  C 0.456730769230769 6.65340909090909  0.673076923076923 6.54545454545455  0.923076923076923 6.54545454545455  L 4.61538461538462 6.54545454545455  C 4.86538461538462 6.54545454545455  5.08173076923077 6.65340909090909  5.26442307692308 6.86931818181818  Z M 5.26442307692308 0.323863636363636  C 5.44711538461538 0.539772727272727  5.53846153846154 0.795454545454545  5.53846153846154 1.09090909090909  L 5.53846153846154 4.36363636363636  C 5.53846153846154 4.65909090909091  5.44711538461538 4.91477272727273  5.26442307692308 5.13068181818182  C 5.08173076923077 5.34659090909091  4.86538461538462 5.45454545454546  4.61538461538462 5.45454545454546  L 0.923076923076923 5.45454545454546  C 0.673076923076923 5.45454545454546  0.456730769230769 5.34659090909091  0.274038461538462 5.13068181818182  C 0.0913461538461538 4.91477272727273  0 4.65909090909091  0 4.36363636363636  L 0 1.09090909090909  C 0 0.795454545454545  0.0913461538461538 0.539772727272727  0.274038461538462 0.323863636363636  C 0.456730769230769 0.107954545454545  0.673076923076923 0  0.923076923076923 0  L 4.61538461538462 0  C 4.86538461538462 0  5.08173076923077 0.107954545454545  5.26442307692308 0.323863636363636  Z M 11.7259615384615 6.86931818181818  C 11.9086538461538 7.08522727272727  12 7.34090909090909  12 7.63636363636364  L 12 10.9090909090909  C 12 11.2045454545455  11.9086538461538 11.4602272727273  11.7259615384615 11.6761363636364  C 11.5432692307692 11.8920454545455  11.3269230769231 12  11.0769230769231 12  L 7.38461538461539 12  C 7.13461538461539 12  6.91826923076923 11.8920454545455  6.73557692307692 11.6761363636364  C 6.55288461538462 11.4602272727273  6.46153846153846 11.2045454545455  6.46153846153846 10.9090909090909  L 6.46153846153846 7.63636363636364  C 6.46153846153846 7.34090909090909  6.55288461538462 7.08522727272727  6.73557692307692 6.86931818181818  C 6.91826923076923 6.65340909090909  7.13461538461539 6.54545454545455  7.38461538461539 6.54545454545455  L 11.0769230769231 6.54545454545455  C 11.3269230769231 6.54545454545455  11.5432692307692 6.65340909090909  11.7259615384615 6.86931818181818  Z M 11.7259615384615 0.323863636363636  C 11.9086538461538 0.539772727272727  12 0.795454545454545  12 1.09090909090909  L 12 4.36363636363636  C 12 4.65909090909091  11.9086538461538 4.91477272727273  11.7259615384615 5.13068181818182  C 11.5432692307692 5.34659090909091  11.3269230769231 5.45454545454546  11.0769230769231 5.45454545454546  L 7.38461538461539 5.45454545454546  C 7.13461538461539 5.45454545454546  6.91826923076923 5.34659090909091  6.73557692307692 5.13068181818182  C 6.55288461538462 4.91477272727273  6.46153846153846 4.65909090909091  6.46153846153846 4.36363636363636  L 6.46153846153846 1.09090909090909  C 6.46153846153846 0.795454545454545  6.55288461538462 0.539772727272727  6.73557692307692 0.323863636363636  C 6.91826923076923 0.107954545454545  7.13461538461539 0  7.38461538461539 0  L 11.0769230769231 0  C 11.3269230769231 0  11.5432692307692 0.107954545454545  11.7259615384615 0.323863636363636  Z " fill-rule="nonzero" fill="#d7d7d7" stroke="none" transform="matrix(1 0 0 1 267 3 )" />
  </g>
</svg>