<?xml version="1.0" encoding="utf-8"?>
<svg version="1.1" xmlns:xlink="http://www.w3.org/1999/xlink" width="24px" height="24px" xmlns="http://www.w3.org/2000/svg">
  <g transform="matrix(1 0 0 1 -25 0 )">
    <path d="M 37 0  C 43.72 0  49 5.28  49 12  C 49 18.72  43.72 24  37 24  C 30.28 24  25 18.72  25 12  C 25 5.28  30.28 0  37 0  Z " fill-rule="nonzero" fill="#ffffff" stroke="none" />
    <path d="M 37 0.5  C 43.44 0.5  48.5 5.56  48.5 12  C 48.5 18.44  43.44 23.5  37 23.5  C 30.56 23.5  25.5 18.44  25.5 12  C 25.5 5.56  30.56 0.5  37 0.5  Z " stroke-width="1" stroke="#169bd5" fill="none" />
  </g>
</svg>