<?xml version="1.0" encoding="utf-8"?>
<svg version="1.1" xmlns:xlink="http://www.w3.org/1999/xlink" width="32px" height="26px" xmlns="http://www.w3.org/2000/svg">
  <g transform="matrix(1 0 0 1 -209 -8 )">
    <path d="M 9.41176470588235 18.7165178571429  L 9.41176470588235 23.6785714285714  L 15.0588235294118 20.8928571428571  L 15.0588235294118 16.3370535714286  L 9.41176470588235 18.7165178571429  Z M 2.52941176470588 14.5814732142857  L 8.47058823529412 17.0915178571429  L 14.4117647058824 14.5814732142857  L 8.47058823529412 12.0714285714286  L 2.52941176470588 14.5814732142857  Z M 24.4705882352941 18.7165178571429  L 24.4705882352941 23.6785714285714  L 30.1176470588235 20.8928571428571  L 30.1176470588235 16.3370535714286  L 24.4705882352941 18.7165178571429  Z M 17.5882352941176 14.5814732142857  L 23.5294117647059 17.0915178571429  L 29.4705882352941 14.5814732142857  L 23.5294117647059 12.0714285714286  L 17.5882352941176 14.5814732142857  Z M 16.9411764705882 8.96651785714286  L 16.9411764705882 12.8404017857143  L 22.5882352941176 10.4464285714286  L 22.5882352941176 6.58705357142857  L 16.9411764705882 8.96651785714286  Z M 9.51470588235294 4.59933035714286  L 16 7.34151785714286  L 22.4852941176471 4.59933035714286  L 16 1.85714285714286  L 9.51470588235294 4.59933035714286  Z M 31.6911764705882 13.8415178571429  C 31.8970588235294 14.1510416666667  32 14.4895833333333  32 14.8571428571429  L 32 20.8928571428571  C 32 21.2410714285714  31.906862745098 21.5651041666667  31.7205882352941 21.8649553571429  C 31.5343137254902 22.164806547619  31.2794117647059 22.3921130952381  30.9558823529412 22.546875  L 24.3676470588235 25.796875  C 24.1225490196078 25.9322916666667  23.843137254902 26  23.5294117647059 26  C 23.2156862745098 26  22.9362745098039 25.9322916666667  22.6911764705882 25.796875  L 16.1029411764706 22.546875  C 16.0637254901961 22.5275297619048  16.0294117647059 22.5081845238095  16 22.4888392857143  C 15.9803921568627 22.5081845238095  15.9460784313726 22.5275297619048  15.8970588235294 22.546875  L 9.30882352941176 25.796875  C 9.06372549019608 25.9322916666667  8.7843137254902 26  8.47058823529412 26  C 8.15686274509804 26  7.87745098039216 25.9322916666667  7.63235294117647 25.796875  L 1.04411764705882 22.546875  C 0.720588235294118 22.3921130952381  0.465686274509804 22.164806547619  0.279411764705882 21.8649553571429  C 0.0931372549019608 21.5651041666667  0 21.2410714285714  0 20.8928571428571  L 0 14.8571428571429  C 0 14.4895833333333  0.105392156862745 14.1510416666667  0.316176470588235 13.8415178571429  C 0.526960784313726 13.531994047619  0.803921568627451 13.2998511904762  1.14705882352941 13.1450892857143  L 7.52941176470588 10.4464285714286  L 7.52941176470588 4.64285714285714  C 7.52941176470588 4.27529761904762  7.63480392156863 3.93675595238095  7.84558823529412 3.62723214285714  C 8.05637254901961 3.31770833333333  8.33333333333333 3.08556547619047  8.67647058823529 2.93080357142857  L 15.2647058823529 0.145089285714284  C 15.4901960784314 0.0483630952380987  15.7352941176471 0  16 0  C 16.2647058823529 0  16.5098039215686 0.0483630952380987  16.7352941176471 0.145089285714284  L 23.3235294117647 2.93080357142857  C 23.6666666666667 3.08556547619047  23.9436274509804 3.31770833333333  24.1544117647059 3.62723214285714  C 24.3651960784314 3.93675595238095  24.4705882352941 4.27529761904762  24.4705882352941 4.64285714285714  L 24.4705882352941 10.4464285714286  L 30.8529411764706 13.1450892857143  C 31.2058823529412 13.2998511904762  31.4852941176471 13.531994047619  31.6911764705882 13.8415178571429  Z " fill-rule="nonzero" fill="#000000" stroke="none" transform="matrix(1 0 0 1 209 8 )" />
  </g>
</svg>