<?xml version="1.0" encoding="utf-8"?>
<svg version="1.1" xmlns:xlink="http://www.w3.org/1999/xlink" width="10px" height="10px" xmlns="http://www.w3.org/2000/svg">
  <g transform="matrix(1 0 0 1 -9 -21 )">
    <path d="M 6.8212890625 2.33072916666667  C 7.0654296875 2.49565972222222  7.1875 2.69097222222222  7.1875 2.91666666666667  C 7.1875 2.97309027777778  7.15657552083333 3.02191840277778  7.0947265625 3.06315104166667  C 7.03287760416667 3.10438368055555  6.95963541666667 3.125  6.875 3.125  C 6.79036458333333 3.125  6.71712239583333 3.10438368055555  6.6552734375 3.06315104166667  C 6.59342447916667 3.02191840277778  6.5625 2.97309027777778  6.5625 2.91666666666667  C 6.5625 2.71701388888889  6.38671875 2.56293402777778  6.03515625 2.45442708333333  C 5.68359375 2.34592013888889  5.33854166666667 2.29166666666667  5 2.29166666666667  C 4.91536458333333 2.29166666666667  4.84212239583333 2.27105034722222  4.7802734375 2.22981770833333  C 4.71842447916667 2.18858506944444  4.6875 2.13975694444444  4.6875 2.08333333333333  C 4.6875 2.02690972222222  4.71842447916667 1.97808159722222  4.7802734375 1.93684895833333  C 4.84212239583333 1.89561631944444  4.91536458333333 1.875  5 1.875  C 5.32552083333333 1.875  5.6494140625 1.90972222222222  5.9716796875 1.97916666666667  C 6.2939453125 2.04861111111111  6.5771484375 2.16579861111111  6.8212890625 2.33072916666667  Z M 8.0859375 4.08854166666667  C 8.52864583333333 3.74565972222222  8.75 3.35503472222222  8.75 2.91666666666667  C 8.75 2.60416666666667  8.6376953125 2.31336805555555  8.4130859375 2.04427083333333  C 8.1884765625 1.77517361111111  7.8955078125 1.55490451388889  7.5341796875 1.38346354166667  C 7.1728515625 1.21202256944444  6.7724609375 1.07747395833333  6.3330078125 0.979817708333334  C 5.8935546875 0.882161458333334  5.44921875 0.833333333333334  5 0.833333333333334  C 4.55078125 0.833333333333334  4.1064453125 0.882161458333334  3.6669921875 0.979817708333334  C 3.2275390625 1.07747395833333  2.8271484375 1.21202256944444  2.4658203125 1.38346354166667  C 2.1044921875 1.55490451388889  1.8115234375 1.77517361111111  1.5869140625 2.04427083333333  C 1.3623046875 2.31336805555555  1.25 2.60416666666667  1.25 2.91666666666667  C 1.25 3.35503472222222  1.47135416666667 3.74565972222222  1.9140625 4.08854166666667  C 1.97916666666667 4.13628472222222  2.07845052083333 4.20789930555555  2.2119140625 4.30338541666667  C 2.34537760416667 4.39887152777778  2.44466145833333 4.47048611111111  2.509765625 4.51822916666667  C 3.34309895833333 5.18229166666667  3.80208333333333 5.82899305555556  3.88671875 6.45833333333333  L 6.11328125 6.45833333333333  C 6.19791666666667 5.82899305555556  6.65690104166667 5.18229166666667  7.490234375 4.51822916666667  C 7.55533854166667 4.47048611111111  7.65462239583333 4.39887152777778  7.7880859375 4.30338541666667  C 7.92154947916667 4.20789930555555  8.02083333333333 4.13628472222222  8.0859375 4.08854166666667  Z M 9.5654296875 1.71549479166667  C 9.85514322916667 2.08658854166667  10 2.48697916666667  10 2.91666666666667  C 10 3.58940972222222  9.66471354166667 4.17100694444444  8.994140625 4.66145833333333  C 8.701171875 4.87413194444444  8.45865885416667 5.06293402777778  8.2666015625 5.22786458333333  C 8.07454427083333 5.39279513888889  7.880859375 5.60004340277778  7.685546875 5.849609375  C 7.490234375 6.09917534722222  7.37955729166667 6.33246527777778  7.353515625 6.54947916666667  C 7.65950520833333 6.67100694444444  7.8125 6.84895833333333  7.8125 7.08333333333333  C 7.8125 7.24392361111111  7.73111979166667 7.3828125  7.568359375 7.5  C 7.73111979166667 7.6171875  7.8125 7.75607638888889  7.8125 7.91666666666667  C 7.8125 8.14236111111111  7.666015625 8.31814236111111  7.373046875 8.44401041666667  C 7.45768229166667 8.54383680555556  7.5 8.64583333333333  7.5 8.75  C 7.5 8.94965277777778  7.3974609375 9.10373263888889  7.1923828125 9.21223958333333  C 6.9873046875 9.32074652777778  6.73502604166667 9.375  6.435546875 9.375  C 6.30533854166667 9.56597222222222  6.11002604166667 9.71788194444444  5.849609375 9.83072916666667  C 5.58919270833333 9.94357638888889  5.30598958333333 10  5 10  C 4.69401041666667 10  4.41080729166667 9.94357638888889  4.150390625 9.83072916666667  C 3.88997395833333 9.71788194444444  3.69466145833333 9.56597222222222  3.564453125 9.375  C 3.26497395833333 9.375  3.0126953125 9.32074652777778  2.8076171875 9.21223958333333  C 2.6025390625 9.10373263888889  2.5 8.94965277777778  2.5 8.75  C 2.5 8.64583333333333  2.54231770833333 8.54383680555556  2.626953125 8.44401041666667  C 2.333984375 8.31814236111111  2.1875 8.14236111111111  2.1875 7.91666666666667  C 2.1875 7.75607638888889  2.26888020833333 7.6171875  2.431640625 7.5  C 2.26888020833333 7.3828125  2.1875 7.24392361111111  2.1875 7.08333333333333  C 2.1875 6.84895833333333  2.34049479166667 6.67100694444444  2.646484375 6.54947916666667  C 2.62044270833333 6.33246527777778  2.509765625 6.09917534722222  2.314453125 5.849609375  C 2.119140625 5.60004340277778  1.92545572916667 5.39279513888889  1.7333984375 5.22786458333333  C 1.54134114583333 5.06293402777778  1.298828125 4.87413194444444  1.005859375 4.66145833333333  C 0.335286458333333 4.17100694444444  0 3.58940972222222  0 2.91666666666667  C 0 2.48697916666667  0.144856770833333 2.08658854166667  0.4345703125 1.71549479166667  C 0.724283854166667 1.34440104166667  1.10514322916667 1.03624131944444  1.5771484375 0.791015625  C 2.04915364583333 0.545789930555555  2.5830078125 0.352647569444443  3.1787109375 0.211588541666666  C 3.7744140625 0.0705295138888884  4.38151041666667 0  5 0  C 5.61848958333333 0  6.2255859375 0.0705295138888884  6.8212890625 0.211588541666666  C 7.4169921875 0.352647569444443  7.95084635416667 0.545789930555555  8.4228515625 0.791015625  C 8.89485677083333 1.03624131944444  9.27571614583333 1.34440104166667  9.5654296875 1.71549479166667  Z " fill-rule="nonzero" fill="#d7d7d7" stroke="none" transform="matrix(1 0 0 1 9 21 )" />
  </g>
</svg>