<?xml version="1.0" encoding="utf-8"?>
<svg version="1.1" xmlns:xlink="http://www.w3.org/1999/xlink" width="10px" height="10px" xmlns="http://www.w3.org/2000/svg">
  <g transform="matrix(1 0 0 1 -24 -21 )">
    <path d="M 0 7.7272445436508  L 10 7.7272445436508  L 10 8.23877728174603  C 10 8.67797205687831  9.84518039849219 9.05128761574074  9.53554119547658 9.35872395833333  C 9.22590199246096 9.66616030092593  8.8529886914378 9.81987847222222  8.41680129240711 9.81987847222222  L 7.95638126009693 9.81987847222222  L 7.05102040816326 9.81987847222222  L 5.8562197092084 9.81987847222222  L 2.96938775510204 9.81987847222222  L 2.15306122448979 9.81987847222222  L 1.58319870759289 9.81987847222222  C 1.1470113085622 9.81987847222222  0.774098007539038 9.66616030092593  0.464458804523424 9.35872395833333  C 0.15481960150781 9.05128761574074  0 8.67797205687831  0 8.23877728174603  L 0 7.7272445436508  Z M 0 5.20058283730159  L 10 5.20058283730159  L 10 7.17695932539682  L 1.33673469387755 7.17695932539682  L 0 7.17695932539682  L 0 5.20058283730159  Z M 0 2.65842013888889  L 10 2.65842013888889  L 10 4.63479662698413  L 0 4.63479662698413  L 0 2.65842013888889  Z M 9.53554119547658 0.461154513888888  C 9.84518039849219 0.76859085648148  10 1.13932291666667  10 1.57335069444445  L 10 2  L 0 2  L 0 1.57335069444445  C 0 1.13932291666667  0.15481960150781 0.76859085648148  0.464458804523424 0.461154513888888  C 0.774098007539038 0.153718171296296  1.1470113085622 0  1.58319870759289 0  L 8.41680129240711 0  C 8.8529886914378 0  9.22590199246096 0.153718171296296  9.53554119547658 0.461154513888888  Z " fill-rule="nonzero" fill="#d7d7d7" stroke="none" transform="matrix(1 0 0 1 24 21 )" />
  </g>
</svg>