<?xml version="1.0" encoding="utf-8"?>
<svg version="1.1" xmlns:xlink="http://www.w3.org/1999/xlink" width="24px" height="24px" xmlns="http://www.w3.org/2000/svg">
  <g transform="matrix(1 0 0 1 -320 -6 )">
    <path d="M 8.57386363636364 9.140625  C 8.67613636363636 9.234375  8.72727272727273 9.35416666666667  8.72727272727273 9.5  L 8.72727272727273 18.5  C 8.72727272727273 18.6458333333333  8.67613636363636 18.765625  8.57386363636364 18.859375  C 8.47159090909091 18.953125  8.34090909090909 19  8.18181818181818 19  L 7.09090909090909 19  C 6.93181818181818 19  6.80113636363637 18.953125  6.69886363636364 18.859375  C 6.59659090909091 18.765625  6.54545454545455 18.6458333333333  6.54545454545455 18.5  L 6.54545454545455 9.5  C 6.54545454545455 9.35416666666667  6.59659090909091 9.234375  6.69886363636364 9.140625  C 6.80113636363637 9.046875  6.93181818181818 9  7.09090909090909 9  L 8.18181818181818 9  C 8.34090909090909 9  8.47159090909091 9.046875  8.57386363636364 9.140625  Z M 12.9375 9.140625  C 13.0397727272727 9.234375  13.0909090909091 9.35416666666667  13.0909090909091 9.5  L 13.0909090909091 18.5  C 13.0909090909091 18.6458333333333  13.0397727272727 18.765625  12.9375 18.859375  C 12.8352272727273 18.953125  12.7045454545455 19  12.5454545454545 19  L 11.4545454545455 19  C 11.2954545454545 19  11.1647727272727 18.953125  11.0625 18.859375  C 10.9602272727273 18.765625  10.9090909090909 18.6458333333333  10.9090909090909 18.5  L 10.9090909090909 9.5  C 10.9090909090909 9.35416666666667  10.9602272727273 9.234375  11.0625 9.140625  C 11.1647727272727 9.046875  11.2954545454545 9  11.4545454545455 9  L 12.5454545454545 9  C 12.7045454545455 9  12.8352272727273 9.046875  12.9375 9.140625  Z M 17.3011363636364 9.140625  C 17.4034090909091 9.234375  17.4545454545455 9.35416666666667  17.4545454545455 9.5  L 17.4545454545455 18.5  C 17.4545454545455 18.6458333333333  17.4034090909091 18.765625  17.3011363636364 18.859375  C 17.1988636363636 18.953125  17.0681818181818 19  16.9090909090909 19  L 15.8181818181818 19  C 15.6590909090909 19  15.5284090909091 18.953125  15.4261363636364 18.859375  C 15.3238636363636 18.765625  15.2727272727273 18.6458333333333  15.2727272727273 18.5  L 15.2727272727273 9.5  C 15.2727272727273 9.35416666666667  15.3238636363636 9.234375  15.4261363636364 9.140625  C 15.5284090909091 9.046875  15.6590909090909 9  15.8181818181818 9  L 16.9090909090909 9  C 17.0681818181818 9  17.1988636363636 9.046875  17.3011363636364 9.140625  Z M 19.5170454545455 21.4453125  C 19.5965909090909 21.2526041666667  19.6363636363636 21.0416666666667  19.6363636363636 20.8125  L 19.6363636363636 6  L 4.36363636363636 6  L 4.36363636363636 20.8125  C 4.36363636363636 21.0416666666667  4.40340909090909 21.2526041666667  4.48295454545455 21.4453125  C 4.5625 21.6380208333333  4.64488636363636 21.7786458333333  4.73011363636364 21.8671875  C 4.81534090909091 21.9557291666667  4.875 22  4.90909090909091 22  L 19.0909090909091 22  C 19.125 22  19.1846590909091 21.9557291666667  19.2698863636364 21.8671875  C 19.3551136363636 21.7786458333333  19.4375 21.6380208333333  19.5170454545455 21.4453125  Z M 9.01704545454546 2.171875  L 8.18181818181818 4  L 15.8181818181818 4  L 15 2.171875  C 14.9204545454545 2.078125  14.8238636363636 2.02083333333333  14.7102272727273 2  L 9.30681818181818 2  C 9.19318181818182 2.02083333333333  9.09659090909091 2.078125  9.01704545454546 2.171875  Z M 23.8465909090909 4.140625  C 23.9488636363636 4.234375  24 4.35416666666667  24 4.5  L 24 5.5  C 24 5.64583333333333  23.9488636363636 5.765625  23.8465909090909 5.859375  C 23.7443181818182 5.953125  23.6136363636364 6  23.4545454545455 6  L 21.8181818181818 6  L 21.8181818181818 20.8125  C 21.8181818181818 21.6770833333333  21.5511363636364 22.4244791666667  21.0170454545455 23.0546875  C 20.4829545454545 23.6848958333333  19.8409090909091 24  19.0909090909091 24  L 4.90909090909091 24  C 4.15909090909091 24  3.51704545454546 23.6953125  2.98295454545455 23.0859375  C 2.44886363636364 22.4765625  2.18181818181818 21.7395833333333  2.18181818181818 20.875  L 2.18181818181818 6  L 0.545454545454545 6  C 0.386363636363636 6  0.255681818181818 5.953125  0.153409090909091 5.859375  C 0.0511363636363636 5.765625  0 5.64583333333333  0 5.5  L 0 4.5  C 0 4.35416666666667  0.0511363636363636 4.234375  0.153409090909091 4.140625  C 0.255681818181818 4.046875  0.386363636363636 4  0.545454545454545 4  L 5.8125 4  L 7.00568181818182 1.390625  C 7.17613636363637 1.00520833333333  7.48295454545455 0.677083333333331  7.92613636363636 0.406250000000001  C 8.36931818181818 0.135416666666665  8.81818181818182 0  9.27272727272727 0  L 14.7272727272727 0  C 15.1818181818182 0  15.6306818181818 0.135416666666665  16.0738636363636 0.406250000000001  C 16.5170454545455 0.677083333333331  16.8238636363636 1.00520833333333  16.9943181818182 1.390625  L 18.1875 4  L 23.4545454545455 4  C 23.6136363636364 4  23.7443181818182 4.046875  23.8465909090909 4.140625  Z " fill-rule="nonzero" fill="#d9001b" stroke="none" transform="matrix(1 0 0 1 320 6 )" />
  </g>
</svg>