<?xml version="1.0" encoding="utf-8"?>
<svg version="1.1" xmlns:xlink="http://www.w3.org/1999/xlink" width="12px" height="12px" xmlns="http://www.w3.org/2000/svg">
  <g transform="matrix(1 0 0 1 -61 -21 )">
    <path d="M 4.03459821428571 4.29296875  C 4.20200892857143 4.48828125  4.28571428571429 4.72395833333333  4.28571428571429 5  C 4.28571428571429 5.27604166666667  4.20200892857143 5.51171875  4.03459821428571 5.70703125  C 3.8671875 5.90234375  3.66517857142857 6  3.42857142857143 6  C 3.19196428571429 6  2.98995535714286 5.90234375  2.82254464285714 5.70703125  C 2.65513392857143 5.51171875  2.57142857142857 5.27604166666667  2.57142857142857 5  C 2.57142857142857 4.72395833333333  2.65513392857143 4.48828125  2.82254464285714 4.29296875  C 2.98995535714286 4.09765625  3.19196428571429 4  3.42857142857143 4  C 3.66517857142857 4  3.8671875 4.09765625  4.03459821428571 4.29296875  Z M 6.60602678571428 4.29296875  C 6.7734375 4.48828125  6.85714285714286 4.72395833333333  6.85714285714286 5  C 6.85714285714286 5.27604166666667  6.7734375 5.51171875  6.60602678571428 5.70703125  C 6.43861607142857 5.90234375  6.23660714285714 6  6 6  C 5.76339285714286 6  5.56138392857143 5.90234375  5.39397321428571 5.70703125  C 5.2265625 5.51171875  5.14285714285714 5.27604166666667  5.14285714285714 5  C 5.14285714285714 4.72395833333333  5.2265625 4.48828125  5.39397321428571 4.29296875  C 5.56138392857143 4.09765625  5.76339285714286 4  6 4  C 6.23660714285714 4  6.43861607142857 4.09765625  6.60602678571428 4.29296875  Z M 9.17745535714286 4.29296875  C 9.34486607142857 4.48828125  9.42857142857143 4.72395833333333  9.42857142857143 5  C 9.42857142857143 5.27604166666667  9.34486607142857 5.51171875  9.17745535714286 5.70703125  C 9.01004464285714 5.90234375  8.80803571428572 6  8.57142857142857 6  C 8.33482142857143 6  8.1328125 5.90234375  7.96540178571428 5.70703125  C 7.79799107142857 5.51171875  7.71428571428572 5.27604166666667  7.71428571428572 5  C 7.71428571428572 4.72395833333333  7.79799107142857 4.48828125  7.96540178571428 4.29296875  C 8.1328125 4.09765625  8.33482142857143 4  8.57142857142857 4  C 8.80803571428572 4  9.01004464285714 4.09765625  9.17745535714286 4.29296875  Z M 8.5546875 1.54296875  C 7.76227678571429 1.18098958333333  6.91071428571428 1  6 1  C 5.08928571428571 1  4.23772321428571 1.18098958333333  3.4453125 1.54296875  C 2.65290178571429 1.90494791666667  2.0234375 2.39322916666667  1.55691964285714 3.0078125  C 1.09040178571429 3.62239583333333  0.857142857142857 4.28645833333333  0.857142857142857 5  C 0.857142857142857 5.58333333333333  1.01674107142857 6.13932291666667  1.3359375 6.66796875  C 1.65513392857143 7.19661458333333  2.10491071428571 7.65364583333333  2.68526785714286 8.0390625  L 3.26785714285714 8.4296875  L 3.08705357142857 9.1796875  C 2.97991071428571 9.65364583333333  2.82366071428571 10.1015625  2.61830357142857 10.5234375  C 3.296875 10.1953125  3.91071428571429 9.75  4.45982142857143 9.1875  L 4.74776785714286 8.890625  L 5.12946428571429 8.9375  C 5.4375 8.97916666666667  5.72767857142857 9  6 9  C 6.91071428571428 9  7.76227678571429 8.81901041666666  8.5546875 8.45703125  C 9.34709821428572 8.09505208333333  9.9765625 7.60677083333333  10.4430803571429 6.9921875  C 10.9095982142857 6.37760416666667  11.1428571428571 5.71354166666667  11.1428571428571 5  C 11.1428571428571 4.28645833333333  10.9095982142857 3.62239583333333  10.4430803571429 3.0078125  C 9.9765625 2.39322916666667  9.34709821428572 1.90494791666667  8.5546875 1.54296875  Z M 11.5245535714286 3.05859375  C 11.8415178571429 3.67578125  12 4.32291666666667  12 5  C 12 5.90625  11.7321428571429 6.74348958333333  11.1964285714286 7.51171875  C 10.6607142857143 8.27994791666666  9.93303571428572 8.88671875  9.01339285714286 9.33203125  C 8.09375 9.77734375  7.08928571428571 10  6 10  C 5.6875 10  5.36383928571429 9.97916666666667  5.02901785714286 9.9375  C 4.14508928571429 10.8489583333333  3.11830357142857 11.4791666666667  1.94866071428571 11.828125  C 1.72991071428571 11.9010416666667  1.47544642857143 11.9583333333333  1.18526785714286 12  L 1.15178571428571 12  C 1.08482142857143 12  1.02455357142857 11.97265625  0.970982142857143 11.91796875  C 0.917410714285714 11.86328125  0.881696428571429 11.7916666666667  0.863839285714286 11.703125  L 0.863839285714286 11.6953125  C 0.850446428571429 11.6744791666667  0.849330357142857 11.6432291666667  0.860491071428571 11.6015625  C 0.871651785714286 11.5598958333333  0.876116071428572 11.5338541666667  0.873883928571429 11.5234375  C 0.871651785714286 11.5130208333333  0.881696428571429 11.48828125  0.904017857142857 11.44921875  L 0.944196428571429 11.37890625  C 0.944196428571429 11.37890625  0.959821428571429 11.3567708333333  0.991071428571429 11.3125  C 1.02232142857143 11.2682291666667  1.04017857142857 11.2447916666667  1.04464285714286 11.2421875  C 1.07589285714286 11.2005208333333  1.14508928571429 11.1106770833333  1.25223214285714 10.97265625  C 1.359375 10.8346354166667  1.43638392857143 10.7356770833333  1.48325892857143 10.67578125  C 1.53013392857143 10.6158854166667  1.59933035714286 10.5130208333333  1.69084821428571 10.3671875  C 1.78236607142857 10.2213541666667  1.85491071428571 10.0885416666667  1.90848214285714 9.96875  C 1.96205357142857 9.84895833333333  2.02232142857143 9.6953125  2.08928571428571 9.5078125  C 2.15625 9.3203125  2.21428571428571 9.12239583333333  2.26339285714286 8.9140625  C 1.5625 8.45052083333333  1.01004464285714 7.87760416666667  0.606026785714286 7.1953125  C 0.202008928571429 6.51302083333333  0 5.78125  0 5  C 0 4.32291666666667  0.158482142857143 3.67578125  0.475446428571429 3.05859375  C 0.792410714285714 2.44140625  1.21875 1.90885416666667  1.75446428571429 1.4609375  C 2.29017857142857 1.01302083333333  2.92857142857143 0.657552083333332  3.66964285714286 0.39453125  C 4.41071428571429 0.131510416666666  5.1875 0  6 0  C 6.8125 0  7.58928571428572 0.131510416666666  8.33035714285714 0.39453125  C 9.07142857142857 0.657552083333332  9.70982142857143 1.01302083333333  10.2455357142857 1.4609375  C 10.78125 1.90885416666667  11.2075892857143 2.44140625  11.5245535714286 3.05859375  Z " fill-rule="nonzero" fill="#aaaaaa" stroke="none" transform="matrix(1 0 0 1 61 21 )" />
  </g>
</svg>