<?xml version="1.0" encoding="utf-8"?>
<svg version="1.1" xmlns:xlink="http://www.w3.org/1999/xlink" width="24px" height="24px" xmlns="http://www.w3.org/2000/svg">
  <g transform="matrix(1 0 0 1 -256 -420 )">
    <path d="M 1.84615384615385 18.4285714285714  L 1.84615384615385 22.2857142857143  L 6 22.2857142857143  L 6 18.4285714285714  L 1.84615384615385 18.4285714285714  Z M 6.92307692307692 18.4285714285714  L 6.92307692307692 22.2857142857143  L 11.5384615384615 22.2857142857143  L 11.5384615384615 18.4285714285714  L 6.92307692307692 18.4285714285714  Z M 1.84615384615385 13.2857142857143  L 1.84615384615385 17.5714285714286  L 6 17.5714285714286  L 6 13.2857142857143  L 1.84615384615385 13.2857142857143  Z M 6.92307692307692 13.2857142857143  L 6.92307692307692 17.5714285714286  L 11.5384615384615 17.5714285714286  L 11.5384615384615 13.2857142857143  L 6.92307692307692 13.2857142857143  Z M 1.84615384615385 8.57142857142857  L 1.84615384615385 12.4285714285714  L 6 12.4285714285714  L 6 8.57142857142857  L 1.84615384615385 8.57142857142857  Z M 12.4615384615385 18.4285714285714  L 12.4615384615385 22.2857142857143  L 17.0769230769231 22.2857142857143  L 17.0769230769231 18.4285714285714  L 12.4615384615385 18.4285714285714  Z M 6.92307692307692 8.57142857142857  L 6.92307692307692 12.4285714285714  L 11.5384615384615 12.4285714285714  L 11.5384615384615 8.57142857142857  L 6.92307692307692 8.57142857142857  Z M 18 18.4285714285714  L 18 22.2857142857143  L 22.1538461538462 22.2857142857143  L 22.1538461538462 18.4285714285714  L 18 18.4285714285714  Z M 12.4615384615385 13.2857142857143  L 12.4615384615385 17.5714285714286  L 17.0769230769231 17.5714285714286  L 17.0769230769231 13.2857142857143  L 12.4615384615385 13.2857142857143  Z M 7.24759615384615 6.30133928571429  C 7.33894230769231 6.21651785714286  7.38461538461539 6.11607142857143  7.38461538461539 6  L 7.38461538461539 2.14285714285714  C 7.38461538461539 2.02678571428571  7.33894230769231 1.92633928571428  7.24759615384615 1.84151785714286  C 7.15625 1.75669642857143  7.04807692307692 1.71428571428571  6.92307692307692 1.71428571428571  L 6 1.71428571428571  C 5.875 1.71428571428571  5.76682692307692 1.75669642857143  5.67548076923077 1.84151785714286  C 5.58413461538462 1.92633928571428  5.53846153846154 2.02678571428571  5.53846153846154 2.14285714285714  L 5.53846153846154 6  C 5.53846153846154 6.11607142857143  5.58413461538462 6.21651785714286  5.67548076923077 6.30133928571429  C 5.76682692307692 6.38616071428571  5.875 6.42857142857143  6 6.42857142857143  L 6.92307692307692 6.42857142857143  C 7.04807692307692 6.42857142857143  7.15625 6.38616071428571  7.24759615384615 6.30133928571429  Z M 18 13.2857142857143  L 18 17.5714285714286  L 22.1538461538462 17.5714285714286  L 22.1538461538462 13.2857142857143  L 18 13.2857142857143  Z M 12.4615384615385 8.57142857142857  L 12.4615384615385 12.4285714285714  L 17.0769230769231 12.4285714285714  L 17.0769230769231 8.57142857142857  L 12.4615384615385 8.57142857142857  Z M 18 8.57142857142857  L 18 12.4285714285714  L 22.1538461538462 12.4285714285714  L 22.1538461538462 8.57142857142857  L 18 8.57142857142857  Z M 18.3245192307692 6.30133928571429  C 18.4158653846154 6.21651785714286  18.4615384615385 6.11607142857143  18.4615384615385 6  L 18.4615384615385 2.14285714285714  C 18.4615384615385 2.02678571428571  18.4158653846154 1.92633928571428  18.3245192307692 1.84151785714286  C 18.2331730769231 1.75669642857143  18.125 1.71428571428571  18 1.71428571428571  L 17.0769230769231 1.71428571428571  C 16.9519230769231 1.71428571428571  16.84375 1.75669642857143  16.7524038461538 1.84151785714286  C 16.6610576923077 1.92633928571428  16.6153846153846 2.02678571428571  16.6153846153846 2.14285714285714  L 16.6153846153846 6  C 16.6153846153846 6.11607142857143  16.6610576923077 6.21651785714286  16.7524038461538 6.30133928571429  C 16.84375 6.38616071428571  16.9519230769231 6.42857142857143  17.0769230769231 6.42857142857143  L 18 6.42857142857143  C 18.125 6.42857142857143  18.2331730769231 6.38616071428571  18.3245192307692 6.30133928571429  Z M 23.4519230769231 3.9375  C 23.8173076923077 4.27678571428571  24 4.67857142857143  24 5.14285714285714  L 24 22.2857142857143  C 24 22.75  23.8173076923077 23.1517857142857  23.4519230769231 23.4910714285714  C 23.0865384615385 23.8303571428571  22.6538461538462 24  22.1538461538462 24  L 1.84615384615385 24  C 1.34615384615385 24  0.913461538461539 23.8303571428571  0.548076923076923 23.4910714285714  C 0.182692307692308 23.1517857142857  0 22.75  0 22.2857142857143  L 0 5.14285714285714  C 0 4.67857142857143  0.182692307692308 4.27678571428571  0.548076923076923 3.9375  C 0.913461538461539 3.59821428571428  1.34615384615385 3.42857142857143  1.84615384615385 3.42857142857143  L 3.69230769230769 3.42857142857143  L 3.69230769230769 2.14285714285714  C 3.69230769230769 1.55357142857143  3.91826923076923 1.04910714285714  4.37019230769231 0.629464285714286  C 4.82211538461539 0.209821428571429  5.36538461538462 0  6 0  L 6.92307692307692 0  C 7.55769230769231 0  8.10096153846154 0.209821428571429  8.55288461538462 0.629464285714286  C 9.00480769230769 1.04910714285714  9.23076923076923 1.55357142857143  9.23076923076923 2.14285714285714  L 9.23076923076923 3.42857142857143  L 14.7692307692308 3.42857142857143  L 14.7692307692308 2.14285714285714  C 14.7692307692308 1.55357142857143  14.9951923076923 1.04910714285714  15.4471153846154 0.629464285714286  C 15.8990384615385 0.209821428571429  16.4423076923077 0  17.0769230769231 0  L 18 0  C 18.6346153846154 0  19.1778846153846 0.209821428571429  19.6298076923077 0.629464285714286  C 20.0817307692308 1.04910714285714  20.3076923076923 1.55357142857143  20.3076923076923 2.14285714285714  L 20.3076923076923 3.42857142857143  L 22.1538461538462 3.42857142857143  C 22.6538461538462 3.42857142857143  23.0865384615385 3.59821428571428  23.4519230769231 3.9375  Z " fill-rule="nonzero" fill="#555555" stroke="none" transform="matrix(1 0 0 1 256 420 )" />
  </g>
</svg>