<?xml version="1.0" encoding="utf-8"?>
<svg version="1.1" xmlns:xlink="http://www.w3.org/1999/xlink" width="117px" height="115px" xmlns="http://www.w3.org/2000/svg">
  <g transform="matrix(1 0 0 1 -229 -183 )">
    <path d="M 229 183  L 346 183  L 346 298  L 229 298  L 229 183  " fill-rule="nonzero" fill="#cccccc" stroke="none" />
    <path d="M 237 191  L 338 191  L 338 290  L 237 290  L 237 191  " fill-rule="nonzero" fill="#ffffff" stroke="none" />
    <path d="M 298.465 217.5  C 293.635 217.5  289.84 213.705  289.84 208.875  C 289.84 204.045  293.635 200.25  298.465 200.25  C 303.295 200.25  307.09 204.045  307.09 208.875  C 307.09 213.705  303.295 217.5  298.465 217.5  " fill-rule="nonzero" fill="#cccccc" stroke="none" />
    <path d="M 240 287  L 240 235.85  L 263.75 212.6  L 297 232.153846153846  L 316 226.55  L 335 232.153846153846  L 335 287  L 240 287  " fill-rule="nonzero" fill="#169bd5" stroke="none" />
  </g>
</svg>