<?xml version="1.0" encoding="utf-8"?>
<svg version="1.1" xmlns:xlink="http://www.w3.org/1999/xlink" width="12px" height="12px" viewBox="197 318  12 12" xmlns="http://www.w3.org/2000/svg">
  <path d="M 203 318  C 206.36 318  209 320.64  209 324  C 209 327.36  206.36 330  203 330  C 199.64 330  197 327.36  197 324  C 197 320.64  199.64 318  203 318  Z " fill-rule="nonzero" fill="#ffffff" stroke="none" />
  <path d="M 203 318.5  C 206.08 318.5  208.5 320.92  208.5 324  C 208.5 327.08  206.08 329.5  203 329.5  C 199.92 329.5  197.5 327.08  197.5 324  C 197.5 320.92  199.92 318.5  203 318.5  Z " stroke-width="1" stroke="#797979" fill="none" />
  <path d="M 203 327  C 201.32 327  200 325.68  200 324  C 200 322.32  201.32 321  203 321  C 204.68 321  206 322.32  206 324  C 206 325.68  204.68 327  203 327  " fill-rule="nonzero" fill="#797979" stroke="none" />
</svg>