<?xml version="1.0" encoding="utf-8"?>
<svg version="1.1" xmlns:xlink="http://www.w3.org/1999/xlink" width="12px" height="12px" viewBox="318 439  12 12" xmlns="http://www.w3.org/2000/svg">
  <path d="M 324 439  C 327.36 439  330 441.64  330 445  C 330 448.36  327.36 451  324 451  C 320.64 451  318 448.36  318 445  C 318 441.64  320.64 439  324 439  Z " fill-rule="nonzero" fill="#f0f0f0" stroke="none" />
  <path d="M 324 439.5  C 327.08 439.5  329.5 441.92  329.5 445  C 329.5 448.08  327.08 450.5  324 450.5  C 320.92 450.5  318.5 448.08  318.5 445  C 318.5 441.92  320.92 439.5  324 439.5  Z " stroke-width="1" stroke="#797979" fill="none" />
  <path d="M 324 448  C 322.32 448  321 446.68  321 445  C 321 443.32  322.32 442  324 442  C 325.68 442  327 443.32  327 445  C 327 446.68  325.68 448  324 448  " fill-rule="nonzero" fill="#797979" stroke="none" />
</svg>