<?xml version="1.0" encoding="utf-8"?>
<svg version="1.1" xmlns:xlink="http://www.w3.org/1999/xlink" width="12px" height="12px" viewBox="197 439  12 12" xmlns="http://www.w3.org/2000/svg">
  <path d="M 203 439  C 206.36 439  209 441.64  209 445  C 209 448.36  206.36 451  203 451  C 199.64 451  197 448.36  197 445  C 197 441.64  199.64 439  203 439  Z " fill-rule="nonzero" fill="#f0f0f0" stroke="none" />
  <path d="M 203 439.5  C 206.08 439.5  208.5 441.92  208.5 445  C 208.5 448.08  206.08 450.5  203 450.5  C 199.92 450.5  197.5 448.08  197.5 445  C 197.5 441.92  199.92 439.5  203 439.5  Z " stroke-width="1" stroke="#797979" fill="none" />
  <path d="M 203 448  C 201.32 448  200 446.68  200 445  C 200 443.32  201.32 442  203 442  C 204.68 442  206 443.32  206 445  C 206 446.68  204.68 448  203 448  " fill-rule="nonzero" fill="#797979" stroke="none" />
</svg>