<?xml version="1.0" encoding="utf-8"?>
<svg version="1.1" xmlns:xlink="http://www.w3.org/1999/xlink" width="12px" height="12px" viewBox="318 558  12 12" xmlns="http://www.w3.org/2000/svg">
  <path d="M 324 558  C 327.36 558  330 560.64  330 564  C 330 567.36  327.36 570  324 570  C 320.64 570  318 567.36  318 564  C 318 560.64  320.64 558  324 558  Z " fill-rule="nonzero" fill="#f0f0f0" stroke="none" />
  <path d="M 324 558.5  C 327.08 558.5  329.5 560.92  329.5 564  C 329.5 567.08  327.08 569.5  324 569.5  C 320.92 569.5  318.5 567.08  318.5 564  C 318.5 560.92  320.92 558.5  324 558.5  Z " stroke-width="1" stroke="#797979" fill="none" />
  <path d="M 324 567  C 322.32 567  321 565.68  321 564  C 321 562.32  322.32 561  324 561  C 325.68 561  327 562.32  327 564  C 327 565.68  325.68 567  324 567  " fill-rule="nonzero" fill="#797979" stroke="none" />
</svg>