<?xml version="1.0" encoding="utf-8"?>
<svg version="1.1" xmlns:xlink="http://www.w3.org/1999/xlink" width="12px" height="12px" viewBox="440 558  12 12" xmlns="http://www.w3.org/2000/svg">
  <path d="M 446 558  C 449.36 558  452 560.64  452 564  C 452 567.36  449.36 570  446 570  C 442.64 570  440 567.36  440 564  C 440 560.64  442.64 558  446 558  Z " fill-rule="nonzero" fill="#f0f0f0" stroke="none" />
  <path d="M 446 558.5  C 449.08 558.5  451.5 560.92  451.5 564  C 451.5 567.08  449.08 569.5  446 569.5  C 442.92 569.5  440.5 567.08  440.5 564  C 440.5 560.92  442.92 558.5  446 558.5  Z " stroke-width="1" stroke="#797979" fill="none" />
  <path d="M 446 567  C 444.32 567  443 565.68  443 564  C 443 562.32  444.32 561  446 561  C 447.68 561  449 562.32  449 564  C 449 565.68  447.68 567  446 567  " fill-rule="nonzero" fill="#797979" stroke="none" />
</svg>