<?xml version="1.0" encoding="utf-8"?>
<svg version="1.1" xmlns:xlink="http://www.w3.org/1999/xlink" width="12px" height="12px" viewBox="330 12  12 12" xmlns="http://www.w3.org/2000/svg">
  <path d="M 336 12  C 339.36 12  342 14.64  342 18  C 342 21.36  339.36 24  336 24  C 332.64 24  330 21.36  330 18  C 330 14.64  332.64 12  336 12  Z " fill-rule="nonzero" fill="#f0f0f0" stroke="none" />
  <path d="M 336 12.5  C 339.08 12.5  341.5 14.92  341.5 18  C 341.5 21.08  339.08 23.5  336 23.5  C 332.92 23.5  330.5 21.08  330.5 18  C 330.5 14.92  332.92 12.5  336 12.5  Z " stroke-width="1" stroke="#797979" fill="none" />
  <path d="M 336 21  C 334.32 21  333 19.68  333 18  C 333 16.32  334.32 15  336 15  C 337.68 15  339 16.32  339 18  C 339 19.68  337.68 21  336 21  " fill-rule="nonzero" fill="#797979" stroke="none" />
</svg>