<?xml version="1.0" encoding="utf-8"?>
<svg version="1.1" xmlns:xlink="http://www.w3.org/1999/xlink" width="24px" height="24px" xmlns="http://www.w3.org/2000/svg">
  <g transform="matrix(1 0 0 1 -108 -192 )">
    <path d="M 20.5501858736059 13.7116134060795  C 20.5600991325898 13.7365549493375  20.5650557620818 13.7739672642245  20.5650557620818 13.8238503507405  L 20.5650557620818 22.8028059236165  C 20.5650557620818 23.1270459859704  20.4708798017348 23.4076383476228  20.2825278810409 23.6445830085737  C 20.094175960347 23.8815276695246  19.8711276332094 24  19.6133828996283 24  L 13.9033457249071 24  L 13.9033457249071 16.8168355416991  L 10.0966542750929 16.8168355416991  L 10.0966542750929 24  L 4.38661710037175 24  C 4.12887236679058 24  3.90582403965304 23.8815276695246  3.71747211895911 23.6445830085737  C 3.52912019826518 23.4076383476228  3.43494423791822 23.1270459859704  3.43494423791822 22.8028059236165  L 3.43494423791822 13.8238503507405  C 3.43494423791822 13.8113795791115  3.43742255266419 13.792673421668  3.44237918215613 13.76773187841  C 3.44733581164808 13.742790335152  3.44981412639405 13.7240841777085  3.44981412639405 13.7116134060795  L 12 4.84489477786438  L 20.5501858736059 13.7116134060795  Z M 23.9851301115242 12.0935307872175  C 23.9950433705081 12.2618862042089  23.9603469640644 12.4084177708496  23.8810408921933 12.5331254871395  L 22.9591078066914 13.9173811379579  C 22.8798017348203 14.0296180826189  22.7757125154895 14.0982073265783  22.6468401486989 14.1231488698363  L 22.6022304832714 14.1231488698363  C 22.4733581164808 14.1231488698363  22.3692688971499 14.0795011691348  22.2899628252788 13.9922057677319  L 12 3.1987529228371  L 1.71003717472119 13.9922057677319  C 1.5910780669145 14.0919719407638  1.47211895910781 14.1356196414653  1.35315985130112 14.1231488698363  C 1.22428748451053 14.0982073265783  1.12019826517968 14.0296180826189  1.04089219330855 13.9173811379579  L 0.118959107806691 12.5331254871395  C 0.0396530359355638 12.4084177708496  0.00495662949194551 12.2618862042089  0.0148698884758364 12.0935307872175  C 0.0247831474597275 11.925175370226  0.0793060718711277 11.7911145752143  0.178438661710037 11.6913484021824  L 10.8698884758364 0.486360093530788  C 11.1871127633209 0.162120031176927  11.5638166047088 0  12 0  C 12.4361833952912 0  12.8128872366791 0.162120031176927  13.1301115241636 0.486360093530788  L 16.7583643122677 4.30241621200312  L 16.7583643122677 0.654715510522212  C 16.7583643122677 0.480124707716287  16.8029739776952 0.336710833982852  16.8921933085502 0.224473889321903  C 16.9814126394052 0.112236944660951  17.09541511772 0.0561184723304757  17.2342007434944 0.0561184723304757  L 20.089219330855 0.0561184723304757  C 20.2280049566295 0.0561184723304757  20.3420074349442 0.112236944660951  20.4312267657993 0.224473889321903  C 20.5204460966543 0.336710833982852  20.5650557620818 0.480124707716287  20.5650557620818 0.654715510522212  L 20.5650557620818 8.28682774746687  L 23.82156133829 11.6913484021824  C 23.9206939281289 11.7911145752143  23.9752168525403 11.925175370226  23.9851301115242 12.0935307872175  Z " fill-rule="nonzero" fill="#70b603" stroke="none" transform="matrix(1 0 0 1 108 192 )" />
  </g>
</svg>