<?xml version="1.0" encoding="utf-8"?>
<svg version="1.1" xmlns:xlink="http://www.w3.org/1999/xlink" width="24px" height="24px" xmlns="http://www.w3.org/2000/svg">
  <g transform="matrix(1 0 0 1 -4 -6 )">
    <path d="M 18.0625 0.910714285714286  L 22.9375 5.08928571428571  C 23.2291666666667 5.33928571428571  23.4791666666667 5.67857142857143  23.6875 6.10714285714286  C 23.8958333333333 6.53571428571429  24 6.92857142857143  24 7.28571428571429  L 24 22.7142857142857  C 24 23.0714285714286  23.8541666666667 23.375  23.5625 23.625  C 23.2708333333333 23.875  22.9166666666667 24  22.5 24  L 1.5 24  C 1.08333333333333 24  0.729166666666667 23.875  0.4375 23.625  C 0.145833333333333 23.375  0 23.0714285714286  0 22.7142857142857  L 0 1.28571428571429  C 0 0.928571428571428  0.145833333333333 0.624999999999999  0.4375 0.375  C 0.729166666666667 0.125000000000001  1.08333333333333 0  1.5 0  L 15.5 0  C 15.9166666666667 0  16.375 0.0892857142857153  16.875 0.267857142857143  C 17.375 0.446428571428571  17.7708333333333 0.660714285714285  18.0625 0.910714285714286  Z M 16.640625 2.11607142857143  C 16.515625 2.00892857142857  16.3020833333333 1.91071428571428  16 1.82142857142857  L 16 6.85714285714286  L 21.875 6.85714285714286  C 21.7708333333333 6.59821428571428  21.65625 6.41517857142857  21.53125 6.30803571428571  L 16.640625 2.11607142857143  Z M 2 22  L 22 22  L 22 8.57142857142857  L 15.5 8.57142857142857  C 15.0833333333333 8.57142857142857  14.7291666666667 8.44642857142857  14.4375 8.19642857142857  C 14.1458333333333 7.94642857142857  14 7.64285714285714  14 7.28571428571429  L 14 2  L 2 2  L 2 22  Z M 15 12  L 20 16.2857142857143  L 20 20.5714285714286  L 4 20.5714285714286  L 4 18  L 7 15.4285714285714  L 9 17.1428571428571  L 15 12  Z M 9.125 12.9642857142857  C 8.54166666666667 13.4642857142857  7.83333333333333 13.7142857142857  7 13.7142857142857  C 6.16666666666667 13.7142857142857  5.45833333333333 13.4642857142857  4.875 12.9642857142857  C 4.29166666666667 12.4642857142857  4 11.8571428571429  4 11.1428571428571  C 4 10.4285714285714  4.29166666666667 9.82142857142857  4.875 9.32142857142857  C 5.45833333333333 8.82142857142857  6.16666666666667 8.57142857142857  7 8.57142857142857  C 7.83333333333333 8.57142857142857  8.54166666666667 8.82142857142857  9.125 9.32142857142857  C 9.70833333333333 9.82142857142857  10 10.4285714285714  10 11.1428571428571  C 10 11.8571428571429  9.70833333333333 12.4642857142857  9.125 12.9642857142857  Z " fill-rule="nonzero" fill="#000000" stroke="none" transform="matrix(1 0 0 1 4 6 )" />
  </g>
</svg>