<?xml version="1.0" encoding="utf-8"?>
<svg version="1.1" xmlns:xlink="http://www.w3.org/1999/xlink" width="24px" height="9px" xmlns="http://www.w3.org/2000/svg">
  <g transform="matrix(1 0 0 1 -318 -13 )">
    <path d="M 24 7  C 24 6.4478125  23.2323214285714 6  22.2857142857143 6  L 1.71428571428571 6  C 0.767678571428571 6  0 6.4478125  0 7  L 0 8  C 0 8.5521875  0.767678571428571 9  1.71428571428571 9  L 22.2857142857143 9  C 23.2323214285714 9  24 8.5521875  24 8  L 24 7  Z M 24 1  C 24 0.4478125  23.2323214285714 0  22.2857142857143 0  L 1.71428571428571 0  C 0.767678571428571 0  0 0.4478125  0 1  L 0 2  C 0 2.5521875  0.767678571428571 3  1.71428571428571 3  L 22.2857142857143 3  C 23.2323214285714 3  24 2.5521875  24 2  L 24 1  Z " fill-rule="nonzero" fill="#d7d7d7" stroke="none" transform="matrix(1 0 0 1 318 13 )" />
  </g>
</svg>