<?xml version="1.0" encoding="utf-8"?>
<svg version="1.1" xmlns:xlink="http://www.w3.org/1999/xlink" width="24px" height="24px" xmlns="http://www.w3.org/2000/svg">
  <g transform="matrix(1 0 0 1 -429 -185 )">
    <path d="M 24 12  C 24 5.37096774193548  18.6290322580645 0  12 0  C 5.37096774193548 0  0 5.37096774193548  0 12  C 0 18.6290322580645  5.37096774193548 24  12 24  C 18.6290322580645 24  24 18.6290322580645  24 12  Z M 18.9677419354839 10.6451612903226  L 18.9677419354839 13.3548387096774  C 18.9677419354839 13.6741935483871  18.7064516129032 13.9354838709677  18.3870967741935 13.9354838709677  L 13.9354838709677 13.9354838709677  L 13.9354838709677 18.3870967741935  C 13.9354838709677 18.7064516129032  13.6741935483871 18.9677419354839  13.3548387096774 18.9677419354839  L 10.6451612903226 18.9677419354839  C 10.3258064516129 18.9677419354839  10.0645161290323 18.7064516129032  10.0645161290323 18.3870967741935  L 10.0645161290323 13.9354838709677  L 5.61290322580645 13.9354838709677  C 5.29354838709677 13.9354838709677  5.03225806451613 13.6741935483871  5.03225806451613 13.3548387096774  L 5.03225806451613 10.6451612903226  C 5.03225806451613 10.3258064516129  5.29354838709677 10.0645161290323  5.61290322580645 10.0645161290323  L 10.0645161290323 10.0645161290323  L 10.0645161290323 5.61290322580645  C 10.0645161290323 5.29354838709677  10.3258064516129 5.03225806451613  10.6451612903226 5.03225806451613  L 13.3548387096774 5.03225806451613  C 13.6741935483871 5.03225806451613  13.9354838709677 5.29354838709677  13.9354838709677 5.61290322580645  L 13.9354838709677 10.0645161290323  L 18.3870967741935 10.0645161290323  C 18.7064516129032 10.0645161290323  18.9677419354839 10.3258064516129  18.9677419354839 10.6451612903226  Z " fill-rule="nonzero" fill="#000000" stroke="none" transform="matrix(1 0 0 1 429 185 )" />
  </g>
</svg>