<?xml version="1.0" encoding="utf-8"?>
<svg version="1.1" xmlns:xlink="http://www.w3.org/1999/xlink" width="12px" height="16px" xmlns="http://www.w3.org/2000/svg">
  <g transform="matrix(1 0 0 1 -428 -201 )">
    <path d="M 11.5168229453944 0.867702755648428  C 11.5168229453944 1.03974576640112  11.4329840044126 1.18862914109093  11.265306122449 1.31435287971791  L 2.05714285714285 7.8453358927682  L 2.27090050636985 8  L 11.265306122449 14.6691393496147  C 11.4329840044126 14.7948630882417  11.5168229453944 14.9437464629315  11.5168229453944 15.1157894736842  C 11.5168229453944 15.2878324844369  11.4329840044126 15.4367158591267  11.265306122449 15.5624395977537  C 11.0976282404854 15.6881633363807  10.8990623276338 15.7510252056941  10.6696083838941 15.7510252056941  C 10.4401544401544 15.7510252056941  10.2415885273028 15.6881633363807  10.0739106453392 15.5624395977537  L 0.251516822945397 8.44665012406948  C 0.0838389409817962 8.32092638544252  0 8.17204301075269  0 8  C 0 7.82795698924731  0.0838389409817962 7.67907361455748  0.251516822945397 7.55334987593052  L 10.0739106453392 0.421052631578947  C 10.2415885273028 0.295328892951985  10.4401544401544 0.232467023638504  10.6696083838941 0.232467023638504  C 10.8990623276338 0.232467023638504  11.0976282404854 0.295328892951985  11.265306122449 0.421052631578947  C 11.4329840044126 0.54677637020591  11.5168229453944 0.695659744895741  11.5168229453944 0.867702755648428  Z " fill-rule="nonzero" fill="#d7d7d7" stroke="none" transform="matrix(1 0 0 1 428 201 )" />
  </g>
</svg>