<?xml version="1.0" encoding="utf-8"?>
<svg version="1.1" xmlns:xlink="http://www.w3.org/1999/xlink" width="24px" height="24px" xmlns="http://www.w3.org/2000/svg">
  <g transform="matrix(1 0 0 1 -153 -332 )">
    <path d="M 5.9765625 1.609375  C 7.81510416666667 0.536458333333331  9.82291666666667 0  12 0  C 14.1770833333333 0  16.1848958333333 0.536458333333331  18.0234375 1.609375  C 19.8619791666667 2.68229166666666  21.3177083333333 4.13802083333333  22.390625 5.9765625  C 23.4635416666667 7.81510416666666  24 9.82291666666666  24 12  C 24 14.1770833333333  23.4635416666667 16.1848958333333  22.390625 18.0234375  C 21.3177083333333 19.8619791666667  19.8619791666667 21.3177083333333  18.0234375 22.390625  C 16.1848958333333 23.4635416666667  14.1770833333333 24  12 24  C 9.82291666666667 24  7.81510416666667 23.4635416666667  5.9765625 22.390625  C 4.13802083333333 21.3177083333333  2.68229166666667 19.8619791666667  1.609375 18.0234375  C 0.536458333333333 16.1848958333333  0 14.1770833333333  0 12  C 0 9.82291666666666  0.536458333333333 7.81510416666666  1.609375 5.9765625  C 2.68229166666667 4.13802083333333  4.13802083333333 2.68229166666666  5.9765625 1.609375  Z M 13.859375 19.8515625  C 13.953125 19.7526041666667  14 19.6302083333333  14 19.484375  L 14 16.515625  C 14 16.3697916666667  13.953125 16.2473958333333  13.859375 16.1484375  C 13.765625 16.0494791666667  13.6510416666667 16  13.515625 16  L 10.515625 16  C 10.3802083333333 16  10.2604166666667 16.0520833333333  10.15625 16.15625  C 10.0520833333333 16.2604166666667  10 16.3802083333333  10 16.515625  L 10 19.484375  C 10 19.6197916666667  10.0520833333333 19.7395833333333  10.15625 19.84375  C 10.2604166666667 19.9479166666667  10.3802083333333 20  10.515625 20  L 13.515625 20  C 13.6510416666667 20  13.765625 19.9505208333333  13.859375 19.8515625  Z M 13.8046875 14.3828125  C 13.9036458333333 14.3046875  13.9583333333333 14.2135416666667  13.96875 14.109375  L 14.25 4.40625  C 14.25 4.28125  14.1979166666667 4.1875  14.09375 4.125  C 13.9895833333333 4.04166666666666  13.8645833333333 4  13.71875 4  L 10.28125 4  C 10.1354166666667 4  10.0104166666667 4.04166666666666  9.90625 4.125  C 9.80208333333333 4.1875  9.75 4.28125  9.75 4.40625  L 10.015625 14.109375  C 10.015625 14.2135416666667  10.0677083333333 14.3046875  10.171875 14.3828125  C 10.2760416666667 14.4609375  10.4010416666667 14.5  10.546875 14.5  L 13.4375 14.5  C 13.5833333333333 14.5  13.7057291666667 14.4609375  13.8046875 14.3828125  Z " fill-rule="nonzero" fill="#d91400" stroke="none" transform="matrix(1 0 0 1 153 332 )" />
  </g>
</svg>