<?xml version="1.0" encoding="utf-8"?>
<svg version="1.1" xmlns:xlink="http://www.w3.org/1999/xlink" width="40px" height="40px" xmlns="http://www.w3.org/2000/svg">
  <g transform="matrix(1 0 0 1 0 -8 )">
    <path d="M 0 31  L 40 31  L 40 32.9551091269841  C 40 34.7118882275132  39.3807215939688 36.205150462963  38.1421647819063 37.4348958333333  C 36.9036079698438 38.6646412037037  35.4119547657512 39.2795138888889  33.6672051696284 39.2795138888889  L 31.8255250403877 39.2795138888889  L 28.204081632653 39.2795138888889  L 23.4248788368336 39  L 11.8775510204082 39  L 8.61224489795916 39.2795138888889  L 6.33279483037157 39.2795138888889  C 4.5880452342488 39.2795138888889  3.09639203015615 38.6646412037037  1.8578352180937 37.4348958333333  C 0.619278406031242 36.205150462963  0 34.7118882275132  0 32.9551091269841  L 0 31  Z M 0 20.8023313492064  L 40 20.8023313492064  L 40 28  L 5.34693877551018 28  L 0 28.7078373015873  L 0 20.8023313492064  Z M 0 11  L 40 11  L 40 19  L 0 19  L 0 11  Z M 38.1421647819063 1.84461805555555  C 39.3807215939688 3.07436342592592  40 4.55729166666667  40 6.29340277777778  L 40 9  L 0 9  L 0 6.29340277777778  C 0 4.55729166666667  0.619278406031242 3.07436342592592  1.8578352180937 1.84461805555555  C 3.09639203015615 0.614872685185184  4.5880452342488 0  6.33279483037157 0  L 33.6672051696284 0  C 35.4119547657512 0  36.9036079698438 0.614872685185184  38.1421647819063 1.84461805555555  Z " fill-rule="nonzero" fill="#000000" stroke="none" transform="matrix(1 0 0 1 0 8 )" />
  </g>
</svg>