<?xml version="1.0" encoding="utf-8"?>
<svg version="1.1" xmlns:xlink="http://www.w3.org/1999/xlink" width="40px" height="20px" xmlns="http://www.w3.org/2000/svg">
  <g transform="matrix(1 0 0 1 0 -8 )">
    <path d="M 0 20  L 40 20  L 0 20  Z M 0 13.4208589349718  L 40 13.4208589349718  L 0 13.4208589349718  Z M 40 11.9607654889913  L 40 6.86043906810036  L 40 11.9607654889913  Z M 38.1421647819063 1.19007616487455  C 39.3807215939688 1.98346027479092  40 2.94018817204301  40 4.06025985663083  L 40 5.40034562211982  L 0 5.40034562211982  L 0 4.06025985663083  C 0 2.94018817204301  0.619278406031242 1.98346027479092  1.8578352180937 1.19007616487455  C 3.09639203015615 0.396692054958183  4.5880452342488 0  6.33279483037157 0  L 33.6672051696284 0  C 35.4119547657512 0  36.9036079698438 0.396692054958183  38.1421647819063 1.19007616487455  Z " fill-rule="nonzero" fill="#000000" stroke="none" transform="matrix(1 0 0 1 0 8 )" />
  </g>
</svg>