<?xml version="1.0" encoding="utf-8"?>
<svg version="1.1" xmlns:xlink="http://www.w3.org/1999/xlink" width="16px" height="16px" xmlns="http://www.w3.org/2000/svg">
  <g transform="matrix(1 0 0 1 -116 -327 )">
    <path d="M 4.70588235294118 11.5178571428571  L 4.70588235294118 14.5714285714286  L 7.52941176470588 12.8571428571429  L 7.52941176470588 10.0535714285714  L 4.70588235294118 11.5178571428571  Z M 1.26470588235294 8.97321428571428  L 4.23529411764706 10.5178571428571  L 7.20588235294118 8.97321428571428  L 4.23529411764706 7.42857142857143  L 1.26470588235294 8.97321428571428  Z M 12.2352941176471 11.5178571428571  L 12.2352941176471 14.5714285714286  L 15.0588235294118 12.8571428571429  L 15.0588235294118 10.0535714285714  L 12.2352941176471 11.5178571428571  Z M 8.79411764705882 8.97321428571428  L 11.7647058823529 10.5178571428571  L 14.7352941176471 8.97321428571428  L 11.7647058823529 7.42857142857143  L 8.79411764705882 8.97321428571428  Z M 8.47058823529412 5.51785714285714  L 8.47058823529412 7.90178571428571  L 11.2941176470588 6.42857142857143  L 11.2941176470588 4.05357142857143  L 8.47058823529412 5.51785714285714  Z M 4.75735294117647 2.83035714285714  L 8 4.51785714285714  L 11.2426470588235 2.83035714285714  L 8 1.14285714285714  L 4.75735294117647 2.83035714285714  Z M 15.8455882352941 8.51785714285714  C 15.9485294117647 8.70833333333333  16 8.91666666666667  16 9.14285714285714  L 16 12.8571428571429  C 16 13.0714285714286  15.953431372549 13.2708333333333  15.8602941176471 13.4553571428571  C 15.7671568627451 13.639880952381  15.6397058823529 13.7797619047619  15.4779411764706 13.875  L 12.1838235294118 15.875  C 12.0612745098039 15.9583333333333  11.921568627451 16  11.7647058823529 16  C 11.6078431372549 16  11.468137254902 15.9583333333333  11.3455882352941 15.875  L 8.05147058823529 13.875  C 8.03186274509804 13.8630952380952  8.01470588235294 13.8511904761905  8 13.8392857142857  C 7.99019607843137 13.8511904761905  7.97303921568628 13.8630952380952  7.94852941176471 13.875  L 4.65441176470588 15.875  C 4.53186274509804 15.9583333333333  4.3921568627451 16  4.23529411764706 16  C 4.07843137254902 16  3.93872549019608 15.9583333333333  3.81617647058824 15.875  L 0.522058823529412 13.875  C 0.360294117647059 13.7797619047619  0.232843137254902 13.639880952381  0.139705882352941 13.4553571428571  C 0.0465686274509804 13.2708333333333  0 13.0714285714286  0 12.8571428571429  L 0 9.14285714285714  C 0 8.91666666666667  0.0526960784313725 8.70833333333333  0.158088235294118 8.51785714285714  C 0.263480392156863 8.32738095238095  0.401960784313726 8.18452380952381  0.573529411764706 8.08928571428572  L 3.76470588235294 6.42857142857143  L 3.76470588235294 2.85714285714286  C 3.76470588235294 2.63095238095238  3.81740196078431 2.42261904761905  3.92279411764706 2.23214285714286  C 4.0281862745098 2.04166666666667  4.16666666666667 1.89880952380952  4.33823529411765 1.80357142857143  L 7.63235294117647 0.0892857142857135  C 7.74509803921569 0.0297619047619069  7.86764705882353 0  8 0  C 8.13235294117647 0  8.25490196078431 0.0297619047619069  8.36764705882353 0.0892857142857135  L 11.6617647058824 1.80357142857143  C 11.8333333333333 1.89880952380952  11.9718137254902 2.04166666666667  12.0772058823529 2.23214285714286  C 12.1825980392157 2.42261904761905  12.2352941176471 2.63095238095238  12.2352941176471 2.85714285714286  L 12.2352941176471 6.42857142857143  L 15.4264705882353 8.08928571428572  C 15.6029411764706 8.18452380952381  15.7426470588235 8.32738095238095  15.8455882352941 8.51785714285714  Z " fill-rule="nonzero" fill="#000000" stroke="none" transform="matrix(1 0 0 1 116 327 )" />
  </g>
</svg>