<?xml version="1.0" encoding="utf-8"?>
<svg version="1.1" xmlns:xlink="http://www.w3.org/1999/xlink" width="9px" height="22px" xmlns="http://www.w3.org/2000/svg">
  <g transform="matrix(1 0 0 1 -132 -221 )">
    <path d="M 5.3173828125 15.1495535714286  C 5.5224609375 15.5587797619048  5.625 16.0089285714286  5.625 16.5  C 5.625 17.1547619047619  5.4609375 17.7113095238095  5.1328125 18.1696428571429  C 4.8046875 18.6279761904762  4.40625 18.8571428571429  3.9375 18.8571428571429  C 3.46875 18.8571428571429  3.0703125 18.6279761904762  2.7421875 18.1696428571429  C 2.4140625 17.7113095238095  2.25 17.1547619047619  2.25 16.5  C 2.25 16.0089285714286  2.3525390625 15.5587797619048  2.5576171875 15.1495535714286  C 2.7626953125 14.7403273809524  3.03515625 14.4497767857143  3.375 14.2779017857143  L 3.375 9.42857142857143  L 4.5 9.42857142857143  L 4.5 14.2779017857143  C 4.83984375 14.4497767857143  5.1123046875 14.7403273809524  5.3173828125 15.1495535714286  Z M 5.92822265625 19.2806919642857  C 6.47607421875 18.5154389880952  6.75 17.5885416666667  6.75 16.5  C 6.75 15.8697916666667  6.650390625 15.280505952381  6.451171875 14.7321428571429  C 6.251953125 14.1837797619048  5.9765625 13.7254464285714  5.625 13.3571428571429  L 5.625 3.92857142857143  C 5.625 3.27380952380952  5.4609375 2.71726190476191  5.1328125 2.25892857142857  C 4.8046875 1.80059523809524  4.40625 1.57142857142857  3.9375 1.57142857142857  C 3.46875 1.57142857142857  3.0703125 1.80059523809524  2.7421875 2.25892857142857  C 2.4140625 2.71726190476191  2.25 3.27380952380952  2.25 3.92857142857143  L 2.25 13.3571428571429  C 1.8984375 13.7254464285714  1.623046875 14.1837797619048  1.423828125 14.7321428571429  C 1.224609375 15.280505952381  1.125 15.8697916666667  1.125 16.5  C 1.125 17.5885416666667  1.39892578125 18.5154389880952  1.94677734375 19.2806919642857  C 2.49462890625 20.0459449404762  3.158203125 20.4285714285714  3.9375 20.4285714285714  C 4.716796875 20.4285714285714  5.38037109375 20.0459449404762  5.92822265625 19.2806919642857  Z M 6.75 12.6573660714286  C 7.5 13.7295386904762  7.875 15.0104166666667  7.875 16.5  C 7.875 18.0141369047619  7.48974609375 19.309337797619  6.71923828125 20.3856026785714  C 5.94873046875 21.4618675595238  5.021484375 22  3.9375 22  C 2.853515625 22  1.92626953125 21.4618675595238  1.15576171875 20.3856026785714  C 0.38525390625 19.309337797619  0 18.0141369047619  0 16.5  C 0 15.0104166666667  0.375 13.7295386904762  1.125 12.6573660714286  L 1.125 3.92857142857143  C 1.125 2.84002976190476  1.39892578125 1.91313244047619  1.94677734375 1.14787946428571  C 2.49462890625 0.382626488095239  3.158203125 0  3.9375 0  C 4.716796875 0  5.38037109375 0.382626488095239  5.92822265625 1.14787946428571  C 6.47607421875 1.91313244047619  6.75 2.84002976190476  6.75 3.92857142857143  L 6.75 12.6573660714286  Z M 7.3125 9.42857142857143  L 9 9.42857142857143  L 9 11  L 7.3125 11  L 7.3125 9.42857142857143  Z M 7.3125 6.28571428571429  L 9 6.28571428571429  L 9 7.85714285714286  L 7.3125 7.85714285714286  L 7.3125 6.28571428571429  Z M 7.3125 3.14285714285714  L 9 3.14285714285714  L 9 4.71428571428571  L 7.3125 4.71428571428571  L 7.3125 3.14285714285714  Z " fill-rule="nonzero" fill="#000000" stroke="none" transform="matrix(1 0 0 1 132 221 )" />
  </g>
</svg>