<?xml version="1.0" encoding="utf-8"?>
<svg version="1.1" xmlns:xlink="http://www.w3.org/1999/xlink" width="24px" height="24px" xmlns="http://www.w3.org/2000/svg">
  <g>
    <path d="M 12.5892857142857 23.71875  C 12.4285714285714 23.90625  12.2321428571429 24  12 24  C 11.7678571428571 24  11.5714285714286 23.90625  11.4107142857143 23.71875  L 3.05357142857143 14.3125  C 2.96428571428571 14.2291666666667  2.84151785714286 14.09375  2.68526785714286 13.90625  C 2.52901785714286 13.71875  2.28125 13.3776041666667  1.94196428571429 12.8828125  C 1.60267857142857 12.3880208333333  1.29910714285714 11.8802083333333  1.03125 11.359375  C 0.763392857142857 10.8385416666667  0.524553571428572 10.2083333333333  0.314732142857143 9.46875  C 0.104910714285714 8.72916666666666  0 8.01041666666666  0 7.3125  C 0 5.02083333333333  0.566964285714286 3.22916666666667  1.70089285714286 1.9375  C 2.83482142857143 0.645833333333333  4.40178571428571 0  6.40178571428572 0  C 6.95535714285714 0  7.52008928571428 0.111979166666665  8.09598214285714 0.335937500000001  C 8.671875 0.559895833333331  9.20758928571428 0.861979166666665  9.703125 1.2421875  C 10.1986607142857 1.62239583333333  10.625 1.97916666666666  10.9821428571429 2.3125  C 11.3392857142857 2.64583333333333  11.6785714285714 3  12 3.375  C 12.3214285714286 3  12.6607142857143 2.64583333333333  13.0178571428571 2.3125  C 13.375 1.97916666666666  13.8013392857143 1.62239583333333  14.296875 1.2421875  C 14.7924107142857 0.861979166666665  15.328125 0.559895833333331  15.9040178571429 0.335937500000001  C 16.4799107142857 0.111979166666665  17.0446428571429 0  17.5982142857143 0  C 19.5982142857143 0  21.1651785714286 0.645833333333333  22.2991071428571 1.9375  C 23.4330357142857 3.22916666666667  24 5.02083333333333  24 7.3125  C 24 9.61458333333333  22.9776785714286 11.9583333333333  20.9330357142857 14.34375  L 12.5892857142857 23.71875  Z " fill-rule="nonzero" fill="#ec808d" stroke="none" />
  </g>
</svg>