<?xml version="1.0" encoding="utf-8"?>
<svg version="1.1" xmlns:xlink="http://www.w3.org/1999/xlink" width="40px" height="40px" xmlns="http://www.w3.org/2000/svg">
  <g transform="matrix(1 0 0 1 0 -8 )">
    <path d="M 21.8181818181818 7.5  C 21.8181818181818 6.809375  21.0045454545455 6.25  20 6.25  C 13.9840909090909 6.25  9.09090909090909 9.6140625  9.09090909090909 13.75  C 9.09090909090909 14.440625  9.90454545454546 15  10.9090909090909 15  C 11.9136363636364 15  12.7272727272727 14.440625  12.7272727272727 13.75  C 12.7272727272727 10.9921875  15.9909090909091 8.75  20 8.75  C 21.0045454545455 8.75  21.8181818181818 8.190625  21.8181818181818 7.5  Z M 10.9113636363636 32  L 10.9159090909091 35.87265625  C 10.9159090909091 36.11875  11.0215909090909 36.35859375  11.2204545454546 36.56328125  L 14.0056818181818 39.44140625  C 14.3431818181818 39.78984375  14.9113636363636 39.99921875  15.5193181818182 39.99921875  L 24.4795454545455 39.99921875  C 25.0886363636364 39.99921875  25.6568181818182 39.78984375  25.9931818181818 39.44140625  L 28.7784090909091 36.56328125  C 28.9761363636364 36.35859375  29.0818181818182 36.11796875  29.0829545454545 35.87265625  L 29.0886363636364 32  L 10.9113636363636 32  Z M 40 13.75  C 40 6.15625  31.0454545454546 0  20 0  C 8.37727272727273 0  0 6.48203125  0 13.75  C 0 17.21640625  1.86931818181818 20.37890625  4.95 22.7953125  C 6.84090909090909 24.27890625  9.80681818181819 27.3890625  10.9068181818182 29.9953125  L 10.9068181818182 30  L 16.3613636363636 30  L 16.3613636363636 29.990625  C 16.3602272727273 29.61796875  16.2795454545455 29.24765625  16.1170454545455 28.89140625  C 15.4818181818182 27.5  13.5238636363636 23.83125  9.05227272727273 20.3234375  C 6.71818181818182 18.49296875  5.47045454545455 16.17109375  5.46022727272728 13.75  C 5.4375 7.996875  12.2409090909091 3.75  20 3.75  C 28.0204545454545 3.75  34.5454545454545 8.2359375  34.5454545454545 13.75  C 34.5454545454545 16.16953125  33.2681818181818 18.50390625  30.9488636363636 20.3234375  C 26.5045454545455 23.80859375  24.5375 27.46953125  23.8920454545455 28.875  C 23.7254642665024 29.2363538463213  23.6403865319799 29.613119827188  23.6397727272727 29.9921875  L 23.6397727272727 30  L 29.0943181818182 30  L 29.0943181818182 29.99609375  C 30.1943181818182 27.3890625  33.1602272727273 24.27890625  35.0511363636364 22.79609375  C 38.1306818181818 20.37890625  40 17.21640625  40 13.75  Z " fill-rule="nonzero" fill="#000000" stroke="none" transform="matrix(1 0 0 1 0 8 )" />
  </g>
</svg>