<?xml version="1.0" encoding="utf-8"?>
<svg version="1.1" xmlns:xlink="http://www.w3.org/1999/xlink" width="37px" height="30px" xmlns="http://www.w3.org/2000/svg">
  <g transform="matrix(1 0 0 1 0 -17 )">
    <path d="M 20.1818181818182 5.625  C 20.1818181818182 5.10703125  19.4292045454545 4.6875  18.5 4.6875  C 12.9352840909091 4.6875  8.40909090909091 7.210546875  8.40909090909091 10.3125  C 8.40909090909091 10.83046875  9.16170454545455 11.25  10.0909090909091 11.25  C 11.0201136363636 11.25  11.7727272727273 10.83046875  11.7727272727273 10.3125  C 11.7727272727273 8.244140625  14.7915909090909 6.5625  18.5 6.5625  C 19.4292045454545 6.5625  20.1818181818182 6.14296875  20.1818181818182 5.625  Z M 10.0930113636364 24  L 10.0972159090909 26.9044921875  C 10.0972159090909 27.0890625  10.1949715909091 27.2689453125  10.3789204545455 27.4224609375  L 12.9552556818182 29.5810546875  C 13.2674431818182 29.8423828125  13.7930113636364 29.9994140625  14.3553693181818 29.9994140625  L 22.6435795454546 29.9994140625  C 23.2069886363636 29.9994140625  23.7325568181818 29.8423828125  24.0436931818182 29.5810546875  L 26.6200284090909 27.4224609375  C 26.8029261363636 27.2689453125  26.9006818181818 27.0884765625  26.9017329545455 26.9044921875  L 26.9069886363636 24  L 10.0930113636364 24  Z M 37 10.3125  C 37 4.6171875  28.7170454545455 0  18.5 0  C 7.74897727272728 0  0 4.8615234375  0 10.3125  C 0 12.9123046875  1.72911931818182 15.2841796875  4.57875 17.096484375  C 6.32784090909091 18.2091796875  9.07130681818182 20.541796875  10.0888068181818 22.496484375  L 10.0888068181818 22.5  L 15.1342613636364 22.5  L 15.1342613636364 22.49296875  C 15.1332102272727 22.2134765625  15.0585795454546 21.9357421875  14.9082670454546 21.6685546875  C 14.3206818181818 20.625  12.5095738636364 17.8734375  8.37335227272728 15.242578125  C 6.21431818181819 13.8697265625  5.06017045454546 12.1283203125  5.05071022727273 10.3125  C 5.0296875 5.99765625  11.3228409090909 2.8125  18.5 2.8125  C 25.9189204545455 2.8125  31.9545454545455 6.176953125  31.9545454545455 10.3125  C 31.9545454545455 12.1271484375  30.7730681818182 13.8779296875  28.6276988636364 15.242578125  C 24.5167045454545 17.8564453125  22.6971875 20.6021484375  22.1001420454546 21.65625  C 21.9460544465147 21.927265384741  21.8673575420814 22.209839870391  21.8667897727273 22.494140625  L 21.8667897727273 22.5  L 26.9122443181818 22.5  L 26.9122443181818 22.4970703125  C 27.9297443181818 20.541796875  30.6732102272727 18.2091796875  32.4223011363636 17.0970703125  C 35.2708806818182 15.2841796875  37 12.9123046875  37 10.3125  Z " fill-rule="nonzero" fill="#70b603" stroke="none" transform="matrix(1 0 0 1 0 17 )" />
  </g>
</svg>