<?xml version="1.0" encoding="utf-8"?>
<svg version="1.1" xmlns:xlink="http://www.w3.org/1999/xlink" width="9px" height="9px" xmlns="http://www.w3.org/2000/svg">
  <g transform="matrix(1 0 0 1 -2 -22 )">
    <path d="M 7.88139204545455 1.11860795454545  C 7.68110795454546 0.918323863636363  7.44034090909091 0.818181818181818  7.15909090909091 0.818181818181818  L 1.84090909090909 0.818181818181818  C 1.55965909090909 0.818181818181818  1.31889204545455 0.918323863636363  1.11860795454545 1.11860795454545  C 0.918323863636364 1.31889204545454  0.818181818181818 1.55965909090909  0.818181818181818 1.84090909090909  L 0.818181818181818 7.15909090909091  C 0.818181818181818 7.44034090909091  0.918323863636364 7.68110795454545  1.11860795454545 7.88139204545455  C 1.31889204545455 8.08167613636364  1.55965909090909 8.18181818181818  1.84090909090909 8.18181818181818  L 7.15909090909091 8.18181818181818  C 7.44034090909091 8.18181818181818  7.68110795454546 8.08167613636364  7.88139204545455 7.88139204545455  C 8.08167613636364 7.68110795454545  8.18181818181818 7.44034090909091  8.18181818181818 7.15909090909091  L 8.18181818181818 1.84090909090909  C 8.18181818181818 1.55965909090909  8.08167613636364 1.31889204545454  7.88139204545455 1.11860795454545  Z M 8.45987215909091 0.540127840909091  C 8.81995738636364 0.900213068181818  9 1.33380681818182  9 1.84090909090909  L 9 7.15909090909091  C 9 7.66619318181818  8.81995738636364 8.09978693181818  8.45987215909091 8.45987215909091  C 8.09978693181818 8.81995738636364  7.66619318181818 9  7.15909090909091 9  L 1.84090909090909 9  C 1.33380681818182 9  0.900213068181818 8.81995738636364  0.540127840909091 8.45987215909091  C 0.180042613636364 8.09978693181818  0 7.66619318181818  0 7.15909090909091  L 0 1.84090909090909  C 0 1.33380681818182  0.180042613636364 0.900213068181818  0.540127840909091 0.540127840909091  C 0.900213068181818 0.180042613636363  1.33380681818182 0  1.84090909090909 0  L 7.15909090909091 0  C 7.66619318181818 0  8.09978693181818 0.180042613636363  8.45987215909091 0.540127840909091  Z " fill-rule="nonzero" fill="#000000" stroke="none" transform="matrix(1 0 0 1 2 22 )" />
  </g>
</svg>