<?xml version="1.0" encoding="utf-8"?>
<svg version="1.1" xmlns:xlink="http://www.w3.org/1999/xlink" width="8px" height="8px" xmlns="http://www.w3.org/2000/svg">
  <g transform="matrix(1 0 0 1 -15 -22 )">
    <path d="M 7.00568181818182 0.994318181818182  C 6.82765151515152 0.816287878787878  6.61363636363636 0.727272727272728  6.36363636363636 0.727272727272728  L 1.63636363636364 0.727272727272728  C 1.38636363636364 0.727272727272728  1.17234848484849 0.816287878787878  0.994318181818182 0.994318181818182  C 0.816287878787879 1.17234848484848  0.727272727272727 1.38636363636364  0.727272727272727 1.63636363636364  L 0.727272727272727 6.36363636363636  C 0.727272727272727 6.61363636363636  0.816287878787879 6.82765151515151  0.994318181818182 7.00568181818182  C 1.17234848484849 7.18371212121212  1.38636363636364 7.27272727272727  1.63636363636364 7.27272727272727  L 6.36363636363636 7.27272727272727  C 6.61363636363636 7.27272727272727  6.82765151515152 7.18371212121212  7.00568181818182 7.00568181818182  C 7.18371212121212 6.82765151515151  7.27272727272727 6.61363636363636  7.27272727272727 6.36363636363636  L 7.27272727272727 1.63636363636364  C 7.27272727272727 1.38636363636364  7.18371212121212 1.17234848484848  7.00568181818182 0.994318181818182  Z M 7.51988636363636 0.480113636363637  C 7.83996212121212 0.800189393939394  8 1.18560606060606  8 1.63636363636364  L 8 6.36363636363636  C 8 6.81439393939394  7.83996212121212 7.19981060606061  7.51988636363636 7.51988636363636  C 7.19981060606061 7.83996212121212  6.81439393939394 8  6.36363636363636 8  L 1.63636363636364 8  C 1.18560606060606 8  0.800189393939394 7.83996212121212  0.480113636363636 7.51988636363636  C 0.160037878787879 7.19981060606061  0 6.81439393939394  0 6.36363636363636  L 0 1.63636363636364  C 0 1.18560606060606  0.160037878787879 0.800189393939394  0.480113636363636 0.480113636363637  C 0.800189393939394 0.160037878787878  1.18560606060606 0  1.63636363636364 0  L 6.36363636363636 0  C 6.81439393939394 0  7.19981060606061 0.160037878787878  7.51988636363636 0.480113636363637  Z " fill-rule="nonzero" fill="#000000" stroke="none" transform="matrix(1 0 0 1 15 22 )" />
  </g>
</svg>