<?xml version="1.0" encoding="utf-8"?>
<svg version="1.1" xmlns:xlink="http://www.w3.org/1999/xlink" width="24px" height="24px" xmlns="http://www.w3.org/2000/svg">
  <g transform="matrix(1 0 0 1 -1 -20 )">
    <path d="M 14.1796875 16.5267857142857  C 14.7265625 16.9732142857143  15 17.4642857142857  15 18  C 15 18.7142857142857  14.5625 19.3214285714286  13.6875 19.8214285714286  C 12.8125 20.3214285714286  11.75 20.5714285714286  10.5 20.5714285714286  C 9.25 20.5714285714286  8.1875 20.3214285714286  7.3125 19.8214285714286  C 6.4375 19.3214285714286  6 18.7142857142857  6 18  C 6 17.4642857142857  6.2734375 16.9732142857143  6.8203125 16.5267857142857  C 7.3671875 16.0803571428571  8.09375 15.7633928571429  9 15.5758928571429  L 9 6.85714285714286  L 12 6.85714285714286  L 12 15.5758928571429  C 12.90625 15.7633928571429  13.6328125 16.0803571428571  14.1796875 16.5267857142857  Z M 15.80859375 21.0334821428571  C 17.26953125 20.1986607142857  18 19.1875  18 18  C 18 17.3125  17.734375 16.6696428571429  17.203125 16.0714285714286  C 16.671875 15.4732142857143  15.9375 14.9732142857143  15 14.5714285714286  L 15 4.28571428571429  C 15 3.57142857142857  14.5625 2.96428571428571  13.6875 2.46428571428571  C 12.8125 1.96428571428571  11.75 1.71428571428571  10.5 1.71428571428571  C 9.25 1.71428571428571  8.1875 1.96428571428571  7.3125 2.46428571428571  C 6.4375 2.96428571428571  6 3.57142857142857  6 4.28571428571429  L 6 14.5714285714286  C 5.0625 14.9732142857143  4.328125 15.4732142857143  3.796875 16.0714285714286  C 3.265625 16.6696428571429  3 17.3125  3 18  C 3 19.1875  3.73046875 20.1986607142857  5.19140625 21.0334821428571  C 6.65234375 21.8683035714286  8.421875 22.2857142857143  10.5 22.2857142857143  C 12.578125 22.2857142857143  14.34765625 21.8683035714286  15.80859375 21.0334821428571  Z M 18 13.8080357142857  C 20 14.9776785714286  21 16.375  21 18  C 21 19.6517857142857  19.97265625 21.0647321428571  17.91796875 22.2388392857143  C 15.86328125 23.4129464285714  13.390625 24  10.5 24  C 7.609375 24  5.13671875 23.4129464285714  3.08203125 22.2388392857143  C 1.02734375 21.0647321428571  0 19.6517857142857  0 18  C 0 16.375  1 14.9776785714286  3 13.8080357142857  L 3 4.28571428571429  C 3 3.09821428571428  3.73046875 2.08705357142857  5.19140625 1.25223214285714  C 6.65234375 0.417410714285715  8.421875 0  10.5 0  C 12.578125 0  14.34765625 0.417410714285715  15.80859375 1.25223214285714  C 17.26953125 2.08705357142857  18 3.09821428571428  18 4.28571428571429  L 18 13.8080357142857  Z M 19.5 10.2857142857143  L 24 10.2857142857143  L 24 12  L 19.5 12  L 19.5 10.2857142857143  Z M 19.5 6.85714285714286  L 24 6.85714285714286  L 24 8.57142857142857  L 19.5 8.57142857142857  L 19.5 6.85714285714286  Z M 19.5 3.42857142857143  L 24 3.42857142857143  L 24 5.14285714285714  L 19.5 5.14285714285714  L 19.5 3.42857142857143  Z " fill-rule="nonzero" fill="#000000" stroke="none" transform="matrix(1 0 0 1 1 20 )" />
  </g>
</svg>