<?xml version="1.0" encoding="utf-8"?>
<svg version="1.1" xmlns:xlink="http://www.w3.org/1999/xlink" width="24px" height="24px" xmlns="http://www.w3.org/2000/svg">
  <g transform="matrix(1 0 0 1 -109 -195 )">
    <path d="M 24 5.25  C 24 4.0078125  22.65625 3  21 3  L 16 3  C 16 1.3453125  14.20625 0  12 0  C 9.79375 0  8 1.3453125  8 3  L 3 3  C 1.34375 3  0 4.0078125  0 5.25  L 0 21.75  C 0 22.9921875  1.34375 24  3 24  L 21 24  C 22.65625 24  24 22.9921875  24 21.75  L 24 5.25  Z M 10.5 3  C 10.5 2.3765625  11.16875 1.875  12 1.875  C 12.83125 1.875  13.5 2.3765625  13.5 3  C 13.5 3.6234375  12.83125 4.125  12 4.125  C 11.16875 4.125  10.5 3.6234375  10.5 3  Z M 18 13.875  L 18 16.125  C 18 16.33125  17.775 16.5  17.5 16.5  L 14 16.5  L 14 19.125  C 14 19.33125  13.775 19.5  13.5 19.5  L 10.5 19.5  C 10.225 19.5  10 19.33125  10 19.125  L 10 16.5  L 6.5 16.5  C 6.225 16.5  6 16.33125  6 16.125  L 6 13.875  C 6 13.66875  6.225 13.5  6.5 13.5  L 10 13.5  L 10 10.875  C 10 10.66875  10.225 10.5  10.5 10.5  L 13.5 10.5  C 13.775 10.5  14 10.66875  14 10.875  L 14 13.5  L 17.5 13.5  C 17.775 13.5  18 13.66875  18 13.875  Z M 18 6.375  L 18 7.125  C 18 7.33125  17.775 7.5  17.5 7.5  L 6.5 7.5  C 6.225 7.5  6 7.33125  6 7.125  L 6 6.375  C 6 6.16875  6.225 6  6.5 6  L 17.5 6  C 17.775 6  18 6.16875  18 6.375  Z " fill-rule="nonzero" fill="#70b603" stroke="none" transform="matrix(1 0 0 1 109 195 )" />
  </g>
</svg>