<?xml version="1.0" encoding="utf-8"?>
<svg version="1.1" xmlns:xlink="http://www.w3.org/1999/xlink" width="24px" height="24px" xmlns="http://www.w3.org/2000/svg">
  <g transform="matrix(1 0 0 1 -109 -241 )">
    <path d="M 24 5.25  C 24 4.0078125  22.65625 3  21 3  L 16 3  C 16 1.3453125  14.20625 0  12 0  C 9.79375 0  8 1.3453125  8 3  L 3 3  C 1.34375 3  0 4.0078125  0 5.25  L 0 21.75  C 0 22.9921875  1.34375 24  3 24  L 21 24  C 22.65625 24  24 22.9921875  24 21.75  L 24 5.25  Z M 7.5 18.75  C 7.5 19.3734375  6.83125 19.875  6 19.875  C 5.16875 19.875  4.5 19.3734375  4.5 18.75  C 4.5 18.1265625  5.16875 17.625  6 17.625  C 6.83125 17.625  7.5 18.1265625  7.5 18.75  Z M 7.5 14.25  C 7.5 14.8734375  6.83125 15.375  6 15.375  C 5.16875 15.375  4.5 14.8734375  4.5 14.25  C 4.5 13.6265625  5.16875 13.125  6 13.125  C 6.83125 13.125  7.5 13.6265625  7.5 14.25  Z M 7.5 9.75  C 7.5 10.3734375  6.83125 10.875  6 10.875  C 5.16875 10.875  4.5 10.3734375  4.5 9.75  C 4.5 9.1265625  5.16875 8.625  6 8.625  C 6.83125 8.625  7.5 9.1265625  7.5 9.75  Z M 10.5 3  C 10.5 2.3765625  11.16875 1.875  12 1.875  C 12.83125 1.875  13.5 2.3765625  13.5 3  C 13.5 3.6234375  12.83125 4.125  12 4.125  C 11.16875 4.125  10.5 3.6234375  10.5 3  Z M 20 18.375  L 20 19.125  C 20 19.33125  19.775 19.5  19.5 19.5  L 10.5 19.5  C 10.225 19.5  10 19.33125  10 19.125  L 10 18.375  C 10 18.16875  10.225 18  10.5 18  L 19.5 18  C 19.775 18  20 18.16875  20 18.375  Z M 20 13.875  L 20 14.625  C 20 14.83125  19.775 15  19.5 15  L 10.5 15  C 10.225 15  10 14.83125  10 14.625  L 10 13.875  C 10 13.66875  10.225 13.5  10.5 13.5  L 19.5 13.5  C 19.775 13.5  20 13.66875  20 13.875  Z M 20 9.375  L 20 10.125  C 20 10.33125  19.775 10.5  19.5 10.5  L 10.5 10.5  C 10.225 10.5  10 10.33125  10 10.125  L 10 9.375  C 10 9.16875  10.225 9  10.5 9  L 19.5 9  C 19.775 9  20 9.16875  20 9.375  Z " fill-rule="nonzero" fill="#70b603" stroke="none" transform="matrix(1 0 0 1 109 241 )" />
  </g>
</svg>