<?xml version="1.0" encoding="utf-8"?>
<svg version="1.1" xmlns:xlink="http://www.w3.org/1999/xlink" width="166px" height="86px" xmlns="http://www.w3.org/2000/svg">
  <g transform="matrix(1 0 0 1 -195 -397 )">
    <path d="M 195 397  L 361 397  L 361 483  L 195 483  L 195 397  " fill-rule="nonzero" fill="#cccccc" stroke="none" />
    <path d="M 201 403  L 355 403  L 355 477  L 201 477  L 201 403  " fill-rule="nonzero" fill="#ffffff" stroke="none" />
    <path d="M 287.77 422.8  C 284.158 422.8  281.32 419.962  281.32 416.35  C 281.32 412.738  284.158 409.9  287.77 409.9  C 291.382 409.9  294.22 412.738  294.22 416.35  C 294.22 419.962  291.382 422.8  287.77 422.8  " fill-rule="nonzero" fill="#cccccc" stroke="none" />
    <path d="M 203 475  L 203 436.5  L 240.5 419  L 293 453.240963855422  L 323 429.5  L 353 453.240963855422  L 353 475  L 203 475  " fill-rule="nonzero" fill="#169bd5" stroke="none" />
  </g>
</svg>