<?xml version="1.0" encoding="utf-8"?>
<svg version="1.1" xmlns:xlink="http://www.w3.org/1999/xlink" width="24px" height="24px" xmlns="http://www.w3.org/2000/svg">
  <g transform="matrix(1 0 0 1 -424 -140 )">
    <path d="M 23.5664516129032 1.17311041448972  C 23.8554838709678 1.58922558922559  24 2.09450830140485  24 2.68895855102752  C 24 3.28340880065018  23.8554838709678 3.78869151282944  23.5664516129032 4.20480668756531  L 12.3561290322581 20.3441309648206  L 10.2503225806452 23.3758272378962  C 9.96129032258068 23.7919424126321  9.61032258064517 24  9.1974193548387 24  C 8.78451612903223 24  8.43354838709678 23.7919424126321  8.14451612903224 23.3758272378962  L 6.03870967741938 20.3441309648206  L 0.433548387096778 12.274468826193  C 0.14451612903224 11.8583536514571  0 11.3530709392778  0 10.7586206896552  C 0 10.1641704400325  0 10.9  0.433548387096778 9.24277255311738  L 0 9.8  C 0.289032258064481 9.38388482526413  0.804516129032265 9.63657262277953  1.30000000000001 9.24277255311738  C 1.65096774193546 9.45083014048532  1.81096774193554 9.38388482526413  2.10000000000002 9.8  L 9.1974193548387 20.3441309648206  C 9.1974193548387 20.3441309648206  16.8991397849463 9.38618367583885  20.7 4.20480668756531  C 21.3333333333334 2.99584349239522  22.5 1.17311041448972  22.5 1.17311041448972  C 22.7890322580645 0.756995239753863  23.5664516129032 1.17311041448972  23.5664516129032 1.17311041448972  C 23.5664516129032 1.17311041448972  23.7109677419355 1.38388482526416  24 1.80000000000002  C 24 1.80000000000002  23.2774193548387 0.756995239753849  23.5664516129032 1.17311041448972  Z " fill-rule="nonzero" fill="#000000" stroke="none" transform="matrix(1 0 0 1 424 140 )" />
  </g>
</svg>