<?xml version="1.0" encoding="utf-8"?>
<svg version="1.1" xmlns:xlink="http://www.w3.org/1999/xlink" width="36px" height="24px" xmlns="http://www.w3.org/2000/svg">
  <g transform="matrix(1 0 0 1 -32 0 )">
    <path d="M 50 0  C 60.08 0  68 5.28  68 12  C 68 18.72  60.08 24  50 24  C 39.92 24  32 18.72  32 12  C 32 5.28  39.92 0  50 0  Z " fill-rule="nonzero" fill="#ffffff" stroke="none" />
    <path d="M 50 0.5  C 59.8 0.5  67.5 5.56  67.5 12  C 67.5 18.44  59.8 23.5  50 23.5  C 40.2 23.5  32.5 18.44  32.5 12  C 32.5 5.56  40.2 0.5  50 0.5  Z " stroke-width="1" stroke="#70b603" fill="none" />
  </g>
</svg>