<?xml version="1.0" encoding="utf-8"?>
<svg version="1.1" xmlns:xlink="http://www.w3.org/1999/xlink" width="68px" height="24px" xmlns="http://www.w3.org/2000/svg">
  <defs>
    <mask fill="white" id="clip10">
      <path d="M 12 24  C 6.58275977462846 24  2.10131328839542 20.5687562898255  0.567334940631027 15.7179432688066  C 0.198437641733523 14.5514001924205  0 13.3027597746285  0 12  C 0 5.28  5.28 0  12 0  L 56 0  C 62.72 0  68 5.28  68 12  C 68 18.72  62.72 24  56 24  L 12 24  Z " fill-rule="evenodd" />
    </mask>
  </defs>
  <g>
    <path d="M 12 24  C 6.58275977462846 24  2.10131328839542 20.5687562898255  0.567334940631027 15.7179432688066  C 0.198437641733523 14.5514001924205  0 13.3027597746285  0 12  C 0 5.28  5.28 0  12 0  L 56 0  C 62.72 0  68 5.28  68 12  C 68 18.72  62.72 24  56 24  L 12 24  Z " fill-rule="nonzero" fill="#70b603" stroke="none" />
    <path d="M 12 24  C 6.58275977462846 24  2.10131328839542 20.5687562898255  0.567334940631027 15.7179432688066  C 0.198437641733523 14.5514001924205  0 13.3027597746285  0 12  C 0 5.28  5.28 0  12 0  L 56 0  C 62.72 0  68 5.28  68 12  C 68 18.72  62.72 24  56 24  L 12 24  Z " stroke-width="2" stroke="#8c8c8c" fill="none" mask="url(#clip10)" />
  </g>
</svg>