<?xml version="1.0" encoding="utf-8"?>
<svg version="1.1" xmlns:xlink="http://www.w3.org/1999/xlink" width="24px" height="24px" xmlns="http://www.w3.org/2000/svg">
  <g transform="matrix(1 0 0 1 -6 -9 )">
    <path d="M 6 9  L 30 9  L 30 33  L 6 33  L 6 9  " fill-rule="nonzero" fill="#cccccc" stroke="none" />
    <path d="M 8 11  L 28 11  L 28 31  L 8 31  L 8 11  " fill-rule="nonzero" fill="#ffffff" stroke="none" />
    <path d="M 20.28 16.2  C 19.272 16.2  18.48 15.408  18.48 14.4  C 18.48 13.392  19.272 12.6  20.28 12.6  C 21.288 12.6  22.08 13.392  22.08 14.4  C 22.08 15.408  21.288 16.2  20.28 16.2  " fill-rule="nonzero" fill="#cccccc" stroke="none" />
    <path d="M 9 31  L 9 20.55  L 13.75 15.8  L 20.4 19.6  L 24.2 18.65  L 28 19.6  L 28 31  L 9 31  " fill-rule="nonzero" fill="#169bd5" stroke="none" />
  </g>
</svg>