<?xml version="1.0" encoding="utf-8"?>
<svg version="1.1" xmlns:xlink="http://www.w3.org/1999/xlink" width="48px" height="24px" xmlns="http://www.w3.org/2000/svg">
  <defs>
    <mask fill="white" id="clip11">
      <path d="M 8.47058823529412 24  C 4.64665395856126 24  1.48327996827912 20.5687562898255  0.400471722798372 15.7179432688066  C 0.140073629458957 14.5514001924205  0 13.3027597746285  0 12  C 0 5.28  3.72705882352941 0  8.47058823529412 0  L 39.5294117647059 0  C 44.2729411764706 0  48 5.28  48 12  C 48 18.72  44.2729411764706 24  39.5294117647059 24  L 8.47058823529412 24  Z " fill-rule="evenodd" />
    </mask>
  </defs>
  <g>
    <path d="M 8.47058823529412 24  C 4.64665395856126 24  1.48327996827912 20.5687562898255  0.400471722798372 15.7179432688066  C 0.140073629458957 14.5514001924205  0 13.3027597746285  0 12  C 0 5.28  3.72705882352941 0  8.47058823529412 0  L 39.5294117647059 0  C 44.2729411764706 0  48 5.28  48 12  C 48 18.72  44.2729411764706 24  39.5294117647059 24  L 8.47058823529412 24  Z " fill-rule="nonzero" fill="#f2f2f2" stroke="none" />
    <path d="M 8.47058823529412 24  C 4.64665395856126 24  1.48327996827912 20.5687562898255  0.400471722798372 15.7179432688066  C 0.140073629458957 14.5514001924205  0 13.3027597746285  0 12  C 0 5.28  3.72705882352941 0  8.47058823529412 0  L 39.5294117647059 0  C 44.2729411764706 0  48 5.28  48 12  C 48 18.72  44.2729411764706 24  39.5294117647059 24  L 8.47058823529412 24  Z " stroke-width="2" stroke="#8c8c8c" fill="none" mask="url(#clip11)" />
  </g>
</svg>