<?xml version="1.0" encoding="utf-8"?>
<svg version="1.1" xmlns:xlink="http://www.w3.org/1999/xlink" width="14px" height="14px" xmlns="http://www.w3.org/2000/svg">
  <g transform="matrix(1 0 0 1 -192 -584 )">
    <path d="M 13.4 10.3703703703704  C 13.6545454545455 10.3703703703704  13.830303030303 10.4216820987654  13.9272727272727 10.5243055555556  C 14.0242424242424 10.6269290123457  13.9939393939394 10.7214506172839  13.8363636363636 10.8078703703704  L 7.47272727272727 13.9189814814815  C 7.35151515151515 13.9729938271605  7.21212121212121 14  7.05454545454545 14  C 6.88484848484849 14  6.73939393939394 13.9729938271605  6.61818181818182 13.9189814814815  L 0.163636363636364 10.8078703703704  C 0.00606060606060605 10.7214506172839  -0.0242424242424243 10.6269290123457  0.0727272727272727 10.5243055555556  C 0.181818181818182 10.4216820987654  0.357575757575758 10.3703703703704  0.6 10.3703703703704  L 4.67272727272727 10.3703703703704  L 4.67272727272727 0.259259259259259  C 4.67272727272727 0.18364197530864  4.72727272727273 0.121527777777778  4.83636363636364 0.0729166666666672  C 4.94545454545455 0.0243055555555562  5.08484848484849 0  5.25454545454545 0  L 8.74545454545455 0  C 8.91515151515152 0  9.05454545454545 0.0243055555555562  9.16363636363636 0.0729166666666672  C 9.27272727272727 0.121527777777778  9.32727272727273 0.18364197530864  9.32727272727273 0.259259259259259  L 9.32727272727273 10.3703703703704  L 13.4 10.3703703703704  Z " fill-rule="nonzero" fill="#4b7902" stroke="none" transform="matrix(1 0 0 1 192 584 )" />
  </g>
</svg>