<?xml version="1.0" encoding="utf-8"?>
<svg version="1.1" xmlns:xlink="http://www.w3.org/1999/xlink" width="14px" height="14px" xmlns="http://www.w3.org/2000/svg">
  <g transform="matrix(1 0 0 1 -192 -639 )">
    <path d="M 13.8363636363636 3.19212962962963  C 13.9939393939394 3.27854938271605  14.0242424242424 3.37307098765432  13.9272727272727 3.47569444444444  C 13.8181818181818 3.57831790123457  13.6424242424242 3.62962962962963  13.4 3.62962962962963  L 9.32727272727273 3.62962962962963  L 9.32727272727273 13.7407407407407  C 9.32727272727273 13.8163580246914  9.27272727272727 13.8784722222222  9.16363636363636 13.9270833333333  C 9.05454545454545 13.9756944444444  8.91515151515152 14  8.74545454545455 14  L 5.25454545454545 14  C 5.08484848484849 14  4.94545454545455 13.9756944444444  4.83636363636364 13.9270833333333  C 4.72727272727273 13.8784722222222  4.67272727272727 13.8163580246914  4.67272727272727 13.7407407407407  L 4.67272727272727 3.62962962962963  L 0.6 3.62962962962963  C 0.345454545454545 3.62962962962963  0.16969696969697 3.57831790123457  0.0727272727272727 3.47569444444444  C -0.0242424242424243 3.37307098765432  0.00606060606060605 3.27854938271605  0.163636363636364 3.19212962962963  L 6.52727272727273 0.0810185185185193  C 6.64848484848485 0.0270061728395059  6.78787878787879 0  6.94545454545455 0  C 7.11515151515152 0  7.26060606060606 0.0270061728395059  7.38181818181818 0.0810185185185193  L 13.8363636363636 3.19212962962963  Z " fill-rule="nonzero" fill="#d9001b" stroke="none" transform="matrix(1 0 0 1 192 639 )" />
  </g>
</svg>