<?xml version="1.0" encoding="utf-8"?>
<svg version="1.1" xmlns:xlink="http://www.w3.org/1999/xlink" width="8px" height="15px" xmlns="http://www.w3.org/2000/svg">
  <g transform="matrix(1 0 0 1 -230 -398 )">
    <path d="M 0.615384615384615 11.5178571428571  L 0.615384615384615 13.9285714285714  L 2 13.9285714285714  L 2 11.5178571428571  L 0.615384615384615 11.5178571428571  Z M 2.30769230769231 11.5178571428571  L 2.30769230769231 13.9285714285714  L 3.84615384615385 13.9285714285714  L 3.84615384615385 11.5178571428571  L 2.30769230769231 11.5178571428571  Z M 0.615384615384615 8.30357142857143  L 0.615384615384615 10.9821428571429  L 2 10.9821428571429  L 2 8.30357142857143  L 0.615384615384615 8.30357142857143  Z M 2.30769230769231 8.30357142857143  L 2.30769230769231 10.9821428571429  L 3.84615384615385 10.9821428571429  L 3.84615384615385 8.30357142857143  L 2.30769230769231 8.30357142857143  Z M 0.615384615384615 5.35714285714286  L 0.615384615384615 7.76785714285714  L 2 7.76785714285714  L 2 5.35714285714286  L 0.615384615384615 5.35714285714286  Z M 4.15384615384615 11.5178571428571  L 4.15384615384615 13.9285714285714  L 5.69230769230769 13.9285714285714  L 5.69230769230769 11.5178571428571  L 4.15384615384615 11.5178571428571  Z M 2.30769230769231 5.35714285714286  L 2.30769230769231 7.76785714285714  L 3.84615384615385 7.76785714285714  L 3.84615384615385 5.35714285714286  L 2.30769230769231 5.35714285714286  Z M 6 11.5178571428571  L 6 13.9285714285714  L 7.38461538461539 13.9285714285714  L 7.38461538461539 11.5178571428571  L 6 11.5178571428571  Z M 4.15384615384615 8.30357142857143  L 4.15384615384615 10.9821428571429  L 5.69230769230769 10.9821428571429  L 5.69230769230769 8.30357142857143  L 4.15384615384615 8.30357142857143  Z M 2.41586538461538 3.93833705357143  C 2.4463141025641 3.88532366071428  2.46153846153846 3.82254464285714  2.46153846153846 3.75  L 2.46153846153846 1.33928571428571  C 2.46153846153846 1.26674107142857  2.4463141025641 1.20396205357143  2.41586538461538 1.15094866071429  C 2.38541666666667 1.09793526785714  2.34935897435897 1.07142857142857  2.30769230769231 1.07142857142857  L 2 1.07142857142857  C 1.95833333333333 1.07142857142857  1.92227564102564 1.09793526785714  1.89182692307692 1.15094866071429  C 1.8613782051282 1.20396205357143  1.84615384615385 1.26674107142857  1.84615384615385 1.33928571428571  L 1.84615384615385 3.75  C 1.84615384615385 3.82254464285714  1.8613782051282 3.88532366071428  1.89182692307692 3.93833705357143  C 1.92227564102564 3.99135044642857  1.95833333333333 4.01785714285714  2 4.01785714285714  L 2.30769230769231 4.01785714285714  C 2.34935897435897 4.01785714285714  2.38541666666667 3.99135044642857  2.41586538461538 3.93833705357143  Z M 6 8.30357142857143  L 6 10.9821428571429  L 7.38461538461539 10.9821428571429  L 7.38461538461539 8.30357142857143  L 6 8.30357142857143  Z M 4.15384615384615 5.35714285714286  L 4.15384615384615 7.76785714285714  L 5.69230769230769 7.76785714285714  L 5.69230769230769 5.35714285714286  L 4.15384615384615 5.35714285714286  Z M 6 5.35714285714286  L 6 7.76785714285714  L 7.38461538461539 7.76785714285714  L 7.38461538461539 5.35714285714286  L 6 5.35714285714286  Z M 6.10817307692308 3.93833705357143  C 6.1386217948718 3.88532366071428  6.15384615384615 3.82254464285714  6.15384615384615 3.75  L 6.15384615384615 1.33928571428571  C 6.15384615384615 1.26674107142857  6.1386217948718 1.20396205357143  6.10817307692308 1.15094866071429  C 6.07772435897436 1.09793526785714  6.04166666666667 1.07142857142857  6 1.07142857142857  L 5.69230769230769 1.07142857142857  C 5.65064102564103 1.07142857142857  5.61458333333333 1.09793526785714  5.58413461538462 1.15094866071429  C 5.5536858974359 1.20396205357143  5.53846153846154 1.26674107142857  5.53846153846154 1.33928571428571  L 5.53846153846154 3.75  C 5.53846153846154 3.82254464285714  5.5536858974359 3.88532366071428  5.58413461538462 3.93833705357143  C 5.61458333333333 3.99135044642857  5.65064102564103 4.01785714285714  5.69230769230769 4.01785714285714  L 6 4.01785714285714  C 6.04166666666667 4.01785714285714  6.07772435897436 3.99135044642857  6.10817307692308 3.93833705357143  Z M 7.81730769230769 2.4609375  C 7.93910256410256 2.67299107142857  8 2.92410714285714  8 3.21428571428571  L 8 13.9285714285714  C 8 14.21875  7.93910256410256 14.4698660714286  7.81730769230769 14.6819196428571  C 7.69551282051282 14.8939732142857  7.55128205128205 15  7.38461538461539 15  L 0.615384615384615 15  C 0.448717948717949 15  0.30448717948718 14.8939732142857  0.182692307692308 14.6819196428571  C 0.0608974358974359 14.4698660714286  0 14.21875  0 13.9285714285714  L 0 3.21428571428571  C 0 2.92410714285714  0.0608974358974359 2.67299107142857  0.182692307692308 2.4609375  C 0.30448717948718 2.24888392857143  0.448717948717949 2.14285714285714  0.615384615384615 2.14285714285714  L 1.23076923076923 2.14285714285714  L 1.23076923076923 1.33928571428571  C 1.23076923076923 0.970982142857144  1.30608974358974 0.655691964285713  1.45673076923077 0.393415178571429  C 1.6073717948718 0.131138392857143  1.78846153846154 0  2 0  L 2.30769230769231 0  C 2.51923076923077 0  2.70032051282051 0.131138392857143  2.85096153846154 0.393415178571429  C 3.00160256410256 0.655691964285713  3.07692307692308 0.970982142857144  3.07692307692308 1.33928571428571  L 3.07692307692308 2.14285714285714  L 4.92307692307692 2.14285714285714  L 4.92307692307692 1.33928571428571  C 4.92307692307692 0.970982142857144  4.99839743589744 0.655691964285713  5.14903846153846 0.393415178571429  C 5.29967948717949 0.131138392857143  5.48076923076923 0  5.69230769230769 0  L 6 0  C 6.21153846153846 0  6.39262820512821 0.131138392857143  6.54326923076923 0.393415178571429  C 6.69391025641026 0.655691964285713  6.76923076923077 0.970982142857144  6.76923076923077 1.33928571428571  L 6.76923076923077 2.14285714285714  L 7.38461538461539 2.14285714285714  C 7.55128205128205 2.14285714285714  7.69551282051282 2.24888392857143  7.81730769230769 2.4609375  Z " fill-rule="nonzero" fill="#8c8c8c" stroke="none" transform="matrix(1 0 0 1 230 398 )" />
  </g>
</svg>