<?xml version="1.0" encoding="utf-8"?>
<svg version="1.1" xmlns:xlink="http://www.w3.org/1999/xlink" width="32px" height="26px" xmlns="http://www.w3.org/2000/svg">
  <g transform="matrix(1 0 0 1 -119 -8 )">
    <path d="M 32 23.5625  C 32 23.11359375  31.642 22.75  31.2 22.75  L 27 22.75  L 27 5.7611328125  C 27.2 4.3768359375  26.1235 3.25  24.8 3.25  L 19.2 3.25  L 19.2 6.5  L 24 6.5  L 24 26  L 31.2 26  C 31.642 26  32 25.63640625  32 25.1875  L 32 23.5625  Z M 17 1.684921875  C 17.6 0.5890625  16.622 -0.2148046875  15.612 0.0512890625  L 6.012 2.5771484375  C 5.2995 2.76453125  4.8 3.437890625  5 4.21078125  L 5 22.75  L 0.8 22.75  C 0.358 22.75  0 23.11359375  0 23.5625  L 0 25.1875  C 0 25.63640625  0.358 26  0.8 26  L 17 26  L 17 1.684921875  Z M 14.4 13  C 14.4 13.8973046875  13.8625 14.625  13.2 14.625  C 12.5375 14.625  12 13.8973046875  12 13  C 12 12.1026953125  12.5375 11.375  13.2 11.375  C 13.8625 11.375  14.4 12.1026953125  14.4 13  Z " fill-rule="nonzero" fill="#000000" stroke="none" transform="matrix(1 0 0 1 119 8 )" />
  </g>
</svg>