<?xml version="1.0" encoding="utf-8"?>
<svg version="1.1" xmlns:xlink="http://www.w3.org/1999/xlink" width="23px" height="23px" xmlns="http://www.w3.org/2000/svg">
  <g transform="matrix(1 0 0 1 -112 -24 )">
    <path d="M 13.5888671875 15.8381696428571  C 14.1129557291667 16.2659970238095  14.375 16.7366071428571  14.375 17.25  C 14.375 17.9345238095238  13.9557291666667 18.516369047619  13.1171875 18.9955357142857  C 12.2786458333333 19.4747023809524  11.2604166666667 19.7142857142857  10.0625 19.7142857142857  C 8.86458333333332 19.7142857142857  7.84635416666668 19.4747023809524  7.0078125 18.9955357142857  C 6.16927083333332 18.516369047619  5.75 17.9345238095238  5.75 17.25  C 5.75 16.7366071428571  6.01204427083332 16.2659970238095  6.5361328125 15.8381696428571  C 7.06022135416668 15.4103422619048  7.75651041666668 15.1065848214286  8.625 14.9268973214286  L 8.625 13.4862662942272  L 8.625 9.85714285714286  L 11.5 9.85714285714286  L 11.5 14.9268973214286  C 12.3684895833333 15.1065848214286  13.0647786458333 15.4103422619048  13.5888671875 15.8381696428571  Z M 15.14990234375 20.1570870535714  C 16.5499674479167 19.3570498511905  17.25 18.3880208333333  17.25 17.25  C 17.25 16.5911458333333  16.9954427083333 15.9750744047619  16.486328125 15.4017857142857  C 15.9772135416667 14.8284970238095  15.2734375 14.3493303571429  14.375 13.9642857142857  L 14.375 4.10714285714286  C 14.375 3.42261904761905  13.9557291666667 2.84077380952381  13.1171875 2.36160714285714  C 12.2786458333333 1.88244047619048  11.2604166666667 1.64285714285714  10.0625 1.64285714285714  C 8.86458333333332 1.64285714285714  7.84635416666668 1.88244047619048  7.0078125 2.36160714285714  C 6.16927083333332 2.84077380952381  5.75 3.42261904761905  5.75 4.10714285714286  L 5.75 13.9642857142857  C 4.8515625 14.3493303571429  4.14778645833332 14.8284970238095  3.638671875 15.4017857142857  C 3.12955729166668 15.9750744047619  2.875 16.5911458333333  2.875 17.25  C 2.875 18.3880208333333  3.57503255208332 19.3570498511905  4.97509765625 20.1570870535714  C 6.37516276041668 20.9571242559524  8.07096354166668 21.3571428571429  10.0625 21.3571428571429  C 12.0540364583333 21.3571428571429  13.7498372395833 20.9571242559524  15.14990234375 20.1570870535714  Z M 17.25 13.2327008928571  C 19.1666666666667 14.3536086309524  20.125 15.6927083333333  20.125 17.25  C 20.125 18.8329613095238  19.1404622395833 20.1870349702381  17.17138671875 21.3122209821429  C 15.2023111979167 22.4374069940476  12.8326822916667 23  10.0625 23  C 7.29231770833332 23  4.92268880208332 22.4374069940476  2.95361328125 21.3122209821429  C 0.98453776041668 20.1870349702381  0 18.8329613095238  0 17.25  C 0 15.6927083333333  0.95833333333332 14.3536086309524  2.875 13.2327008928571  L 2.875 4.10714285714286  C 2.875 2.96912202380952  3.57503255208332 2.00009300595238  4.97509765625 1.20005580357143  C 6.37516276041668 0.400018601190477  8.07096354166668 0  10.0625 0  C 12.0540364583333 0  13.7498372395833 0.400018601190477  15.14990234375 1.20005580357143  C 16.5499674479167 2.00009300595238  17.25 2.96912202380952  17.25 4.10714285714286  L 17.25 13.2327008928571  Z M 18.6875 9.85714285714286  L 23 9.85714285714286  L 23 11.5  L 18.6875 11.5  L 18.6875 9.85714285714286  Z M 18.6875 6.57142857142857  L 23 6.57142857142857  L 23 8.21428571428572  L 18.6875 8.21428571428572  L 18.6875 6.57142857142857  Z M 18.6875 3.28571428571428  L 23 3.28571428571428  L 23 4.92857142857143  L 18.6875 4.92857142857143  L 18.6875 3.28571428571428  Z " fill-rule="nonzero" fill="#000000" stroke="none" transform="matrix(1 0 0 1 112 24 )" />
  </g>
</svg>