<?xml version="1.0" encoding="utf-8"?>
<svg version="1.1" xmlns:xlink="http://www.w3.org/1999/xlink" width="23px" height="23px" xmlns="http://www.w3.org/2000/svg">
  <g transform="matrix(1 0 0 1 -166 -24 )">
    <path d="M 10.65771484375 18.4140625  C 11.21923828125 18.0234375  11.5 17.5520833333333  11.5 17  C 11.5 16.625  11.3502604166667 16.265625  11.05078125 15.921875  C 11.0358072916667 15.9114583333333  10.9197591145833 15.7942708333333  10.70263671875 15.5703125  C 10.4855143229167 15.3463541666667  10.2945963541667 15.1484375  10.1298828125 14.9765625  C 9.96516927083333 14.8046875  9.77799479166667 14.5755208333333  9.568359375 14.2890625  C 9.35872395833333 14.0026041666667  9.20149739583333 13.7395833333333  9.0966796875 13.5  C 9.03678385416667 13.3333333333333  8.87955729166667 13.25  8.625 13.25  C 8.37044270833333 13.25  8.21321614583333 13.3333333333333  8.1533203125 13.5  C 8.04850260416667 13.7395833333333  7.89127604166667 14.0026041666667  7.681640625 14.2890625  C 7.47200520833333 14.5755208333333  7.28483072916667 14.8046875  7.1201171875 14.9765625  C 6.95540364583333 15.1484375  6.76448567708333 15.3463541666667  6.54736328125 15.5703125  C 6.33024088541667 15.7942708333333  6.21419270833333 15.9114583333333  6.19921875 15.921875  C 5.89973958333333 16.265625  5.75 16.625  5.75 17  C 5.75 17.5520833333333  6.03076171875 18.0234375  6.59228515625 18.4140625  C 7.15380859375 18.8046875  7.83138020833333 19  8.625 19  C 9.41861979166667 19  10.09619140625 18.8046875  10.65771484375 18.4140625  Z M 21.1806640625 10.703125  C 22.3935546875 12.0260416666667  23 13.4583333333333  23 15  C 23 17.2083333333333  21.876953125 19.09375  19.630859375 20.65625  C 17.384765625 22.21875  14.6744791666667 23  11.5 23  C 8.32552083333333 23  5.615234375 22.21875  3.369140625 20.65625  C 1.123046875 19.09375  0 17.2083333333333  0 15  C 0 13.4895833333333  0.6064453125 12.0572916666667  1.8193359375 10.703125  C 1.9091796875 10.609375  2.37711588541667 10.1380208333333  3.22314453125 9.2890625  C 4.06917317708333 8.44010416666667  4.82535807291667 7.65364583333333  5.49169921875 6.9296875  C 6.15804036458333 6.20572916666666  6.90299479166667 5.27864583333333  7.7265625 4.1484375  C 8.55013020833334 3.01822916666666  9.17154947916667 1.96875  9.5908203125 0.999999999999999  C 9.7255859375 0.687499999999999  9.98014322916667 0.442708333333331  10.3544921875 0.265625  C 10.7288411458333 0.0885416666666642  11.1106770833333 0  11.5 0  C 11.8893229166667 0  12.27490234375 0.0885416666666642  12.65673828125 0.265625  C 13.03857421875 0.442708333333331  13.2893880208333 0.687499999999999  13.4091796875 0.999999999999999  C 13.8284505208333 1.96875  14.4498697916667 3.01822916666666  15.2734375 4.1484375  C 16.0970052083333 5.27864583333333  16.8419596354167 6.20572916666666  17.50830078125 6.9296875  C 18.1746419270833 7.65364583333333  18.9308268229167 8.44010416666667  19.77685546875 9.2890625  C 20.6228841145833 10.1380208333333  21.0908203125 10.609375  21.1806640625 10.703125  Z " fill-rule="nonzero" fill="#000000" stroke="none" transform="matrix(1 0 0 1 166 24 )" />
  </g>
</svg>