<?xml version="1.0" encoding="utf-8"?>
<svg version="1.1" xmlns:xlink="http://www.w3.org/1999/xlink" width="16px" height="24px" xmlns="http://www.w3.org/2000/svg">
  <g transform="matrix(1 0 0 1 -33 -66 )">
    <path d="M 9.453125 16.5267857142857  C 9.81770833333334 16.9732142857143  10 17.4642857142857  10 18  C 10 18.7142857142857  9.70833333333334 19.3214285714286  9.125 19.8214285714286  C 8.54166666666666 20.3214285714286  7.83333333333334 20.5714285714286  7 20.5714285714286  C 6.16666666666666 20.5714285714286  5.45833333333334 20.3214285714286  4.875 19.8214285714286  C 4.29166666666666 19.3214285714286  4 18.7142857142857  4 18  C 4 17.4642857142857  4.18229166666666 16.9732142857143  4.546875 16.5267857142857  C 4.91145833333334 16.0803571428571  5.39583333333334 15.7633928571429  6 15.5758928571429  L 6 14.072625698324  L 6 10.2857142857143  L 8 10.2857142857143  L 8 15.5758928571429  C 8.60416666666666 15.7633928571429  9.08854166666666 16.0803571428571  9.453125 16.5267857142857  Z M 10.5390625 21.0334821428571  C 11.5130208333333 20.1986607142857  12 19.1875  12 18  C 12 17.3125  11.8229166666667 16.6696428571429  11.46875 16.0714285714286  C 11.1145833333333 15.4732142857143  10.625 14.9732142857143  10 14.5714285714286  L 10 4.28571428571429  C 10 3.57142857142857  9.70833333333334 2.96428571428571  9.125 2.46428571428571  C 8.54166666666666 1.96428571428572  7.83333333333334 1.71428571428571  7 1.71428571428571  C 6.16666666666666 1.71428571428571  5.45833333333334 1.96428571428572  4.875 2.46428571428571  C 4.29166666666666 2.96428571428571  4 3.57142857142857  4 4.28571428571429  L 4 14.5714285714286  C 3.375 14.9732142857143  2.88541666666666 15.4732142857143  2.53125 16.0714285714286  C 2.17708333333334 16.6696428571429  2 17.3125  2 18  C 2 19.1875  2.48697916666666 20.1986607142857  3.4609375 21.0334821428571  C 4.43489583333334 21.8683035714286  5.61458333333334 22.2857142857143  7 22.2857142857143  C 8.38541666666666 22.2857142857143  9.56510416666666 21.8683035714286  10.5390625 21.0334821428571  Z M 12 13.8080357142857  C 13.3333333333333 14.9776785714286  14 16.375  14 18  C 14 19.6517857142857  13.3151041666667 21.0647321428571  11.9453125 22.2388392857143  C 10.5755208333333 23.4129464285714  8.92708333333334 24  7 24  C 5.07291666666666 24  3.42447916666666 23.4129464285714  2.0546875 22.2388392857143  C 0.684895833333343 21.0647321428571  0 19.6517857142857  0 18  C 0 16.375  0.666666666666657 14.9776785714286  2 13.8080357142857  L 2 4.28571428571429  C 2 3.09821428571428  2.48697916666666 2.08705357142857  3.4609375 1.25223214285715  C 4.43489583333334 0.417410714285715  5.61458333333334 0  7 0  C 8.38541666666666 0  9.56510416666666 0.417410714285715  10.5390625 1.25223214285715  C 11.5130208333333 2.08705357142857  12 3.09821428571428  12 4.28571428571429  L 12 13.8080357142857  Z M 13 10.2857142857143  L 16 10.2857142857143  L 16 12  L 13 12  L 13 10.2857142857143  Z M 13 6.85714285714285  L 16 6.85714285714285  L 16 8.57142857142857  L 13 8.57142857142857  L 13 6.85714285714285  Z M 13 3.42857142857143  L 16 3.42857142857143  L 16 5.14285714285715  L 13 5.14285714285715  L 13 3.42857142857143  Z " fill-rule="nonzero" fill="#000000" stroke="none" transform="matrix(1 0 0 1 33 66 )" />
  </g>
</svg>