<?xml version="1.0" encoding="utf-8"?>
<svg version="1.1" xmlns:xlink="http://www.w3.org/1999/xlink" width="8px" height="9px" xmlns="http://www.w3.org/2000/svg">
  <g transform="matrix(1 0 0 1 -49 -81 )">
    <path d="M 3.70703125 7.2055027173913  C 3.90234375 7.05264945652174  4 6.86820652173913  4 6.65217391304348  C 4 6.5054347826087  3.94791666666667 6.3648097826087  3.84375 6.23029891304348  C 3.83854166666667 6.22622282608696  3.79817708333333 6.18036684782609  3.72265625 6.09273097826087  C 3.64713541666667 6.00509510869565  3.58072916666667 5.92764945652174  3.5234375 5.86039402173913  C 3.46614583333333 5.79313858695652  3.40104166666667 5.70346467391304  3.328125 5.5913722826087  C 3.25520833333333 5.47927989130435  3.20052083333333 5.37635869565217  3.1640625 5.28260869565217  C 3.14322916666667 5.21739130434783  3.08854166666667 5.18478260869565  3 5.18478260869565  C 2.91145833333333 5.18478260869565  2.85677083333333 5.21739130434783  2.8359375 5.28260869565217  C 2.79947916666667 5.37635869565217  2.74479166666667 5.47927989130435  2.671875 5.5913722826087  C 2.59895833333333 5.70346467391304  2.53385416666667 5.79313858695652  2.4765625 5.86039402173913  C 2.41927083333333 5.92764945652174  2.35286458333333 6.00509510869565  2.27734375 6.09273097826087  C 2.20182291666667 6.18036684782609  2.16145833333333 6.22622282608696  2.15625 6.23029891304348  C 2.05208333333333 6.3648097826087  2 6.5054347826087  2 6.65217391304348  C 2 6.86820652173913  2.09765625 7.05264945652174  2.29296875 7.2055027173913  C 2.48828125 7.35835597826087  2.72395833333333 7.43478260869565  3 7.43478260869565  C 3.27604166666667 7.43478260869565  3.51171875 7.35835597826087  3.70703125 7.2055027173913  Z M 7.3671875 4.18817934782609  C 7.7890625 4.70584239130435  8 5.26630434782609  8 5.8695652173913  C 8 6.73369565217391  7.609375 7.47146739130435  6.828125 8.08288043478261  C 6.046875 8.69429347826087  5.10416666666667 9  4 9  C 2.89583333333333 9  1.953125 8.69429347826087  1.171875 8.08288043478261  C 0.390625 7.47146739130435  0 6.73369565217391  0 5.8695652173913  C 0 5.27853260869565  0.2109375 4.71807065217391  0.6328125 4.18817934782609  C 0.6640625 4.15149456521739  0.826822916666667 3.96705163043478  1.12109375 3.63485054347826  C 1.41536458333333 3.30264945652174  1.67838541666667 2.99490489130435  1.91015625 2.71161684782609  C 2.14192708333333 2.42832880434782  2.40104166666667 2.06555706521739  2.6875 1.62330163043478  C 2.97395833333333 1.18104619565217  3.19010416666667 0.770380434782609  3.3359375 0.391304347826087  C 3.3828125 0.269021739130434  3.47135416666667 0.173233695652173  3.6015625 0.103940217391304  C 3.73177083333333 0.0346467391304338  3.86458333333333 0  4 0  C 4.13541666666667 0  4.26953125 0.0346467391304338  4.40234375 0.103940217391304  C 4.53515625 0.173233695652173  4.62239583333333 0.269021739130434  4.6640625 0.391304347826087  C 4.80989583333333 0.770380434782609  5.02604166666667 1.18104619565217  5.3125 1.62330163043478  C 5.59895833333333 2.06555706521739  5.85807291666667 2.42832880434782  6.08984375 2.71161684782609  C 6.32161458333333 2.99490489130435  6.58463541666667 3.30264945652174  6.87890625 3.63485054347826  C 7.17317708333333 3.96705163043478  7.3359375 4.15149456521739  7.3671875 4.18817934782609  Z " fill-rule="nonzero" fill="#000000" stroke="none" transform="matrix(1 0 0 1 49 81 )" />
  </g>
</svg>